<?xml version="1.0" encoding="UTF-8" standalone="no"?>
<!-- Created with Inkscape (http://www.inkscape.org/) -->
<svg id="svg4318" xmlns:rdf="http://www.w3.org/1999/02/22-rdf-syntax-ns#" xmlns="http://www.w3.org/2000/svg" height="110" width="200" version="1.1" xmlns:cc="http://creativecommons.org/ns#" xmlns:dc="http://purl.org/dc/elements/1.1/" viewBox="0 0 199.99999 110">
 <defs id="defs4320">
  <clipPath id="clipPath42" clipPathUnits="userSpaceOnUse">
   <path id="path44" d="m0 396.85h255.12v-396.85h-255.12v396.85z"/>
  </clipPath>
 </defs>
 <metadata id="metadata4323">
  <rdf:RDF>
   <cc:Work rdf:about="">
    <dc:format>image/svg+xml</dc:format>
    <dc:type rdf:resource="http://purl.org/dc/dcmitype/StillImage"/>
    <dc:title/>
   </cc:Work>
  </rdf:RDF>
 </metadata>
 <g id="layer1" transform="translate(0 -942.36)">
  <g id="g38" transform="matrix(2.8777 0 0 -2.8777 -28.771 2069.9)">
   <g id="g40" clip-path="url(#clipPath42)">
    <g id="g46" transform="translate(21.366 376.84)">
     <path id="path48" d="m0 0-0.462 1.911c-0.116 0.459-0.188 0.933-0.258 1.394h-0.145l-0.718-3.305h1.583zm-2.602-3.923h-4.167l3.764 10.832h4.356l3.863-10.832h-4.169l-0.358 1.35h-2.974l-0.315-1.35z" fill="#231f20"/>
    </g>
    <g id="g50" transform="translate(26.68 383.75)">
     <path id="path52" d="m0 0h3.937v-7.356h3.305v-3.476h-7.242v10.832z" fill="#231f20"/>
    </g>
    <g id="g54" transform="translate(34.254 383.75)">
     <path id="path56" d="m0 0h7.254v-3.101h-3.29v-1.122h2.886v-2.816h-2.886v-3.793h-3.964v10.832z" fill="#231f20"/>
    </g>
    <g id="g58" transform="translate(45.747 378.95)">
     <path id="path60" d="m0 0h0.276c0.645 0 1.291 0.102 1.291 0.906 0 0.835-0.593 0.933-1.265 0.933h-0.302v-1.839zm-3.848 4.799h4.754c2.443 0 4.511-1.034 4.511-3.762 0-1.64-0.634-2.329-2.098-2.814v-0.09c0.2-0.158 0.447-0.33 0.661-0.648l2.354-3.518h-4.537l-1.724 3.476h-0.073v-3.476h-3.848v10.832z" fill="#231f20"/>
    </g>
    <g id="g62" transform="translate(52.285 383.75)">
     <path id="path64" d="m0 0h7.285v-2.96h-3.32v-1.034h3.034v-2.814h-3.034v-1.065h3.437v-2.959h-7.402v10.832z" fill="#231f20"/>
    </g>
    <g id="g66" transform="translate(63.812 376.16)">
     <path id="path68" d="m0 0h0.24c1.31 0 2.315 0.6 2.315 2.025 0 1.521-0.878 2.17-2.315 2.17h-0.24v-4.195zm-3.941 7.584h4.011c3.636 0 6.42-1.592 6.42-5.572 0-3.219-2.268-5.26-5.445-5.26h-4.986v10.832z" fill="#231f20"/>
    </g>
    <path id="path70" d="m70.071 362.3h-55.474v8.983h55.474v-8.983z" stroke="#231f20" stroke-miterlimit="10" stroke-width="0.55" fill="none"/>
    <g id="g72" transform="translate(42.644 364.59)">
     <path id="path74" d="m0 0h2.948" stroke="#231f20" stroke-miterlimit="10" stroke-width="0.55" fill="none"/>
    </g>
    <g id="g76" transform="translate(17.276 366.74)">
     <path id="path78" d="m0 0v-1.194-0.573h0.776c0.228 0 0.42 0.087 0.584 0.261 0.161 0.173 0.242 0.381 0.242 0.623 0 0.244-0.081 0.451-0.242 0.622-0.164 0.175-0.356 0.261-0.584 0.261h-0.776zm0 0.972h0.411c0.111 0 0.207 0.042 0.285 0.129 0.08 0.086 0.119 0.192 0.119 0.317 0 0.122-0.039 0.228-0.119 0.313-0.078 0.088-0.174 0.129-0.285 0.129h-0.411v-0.888zm-0.789-3.534v5.216h1.2c0.33 0 0.611-0.117 0.842-0.349 0.234-0.234 0.349-0.518 0.349-0.848 0-0.327-0.111-0.604-0.334-0.835 0.239-0.077 0.455-0.21 0.649-0.406 0.314-0.318 0.472-0.702 0.472-1.15 0-0.451-0.158-0.833-0.472-1.15-0.316-0.317-0.695-0.478-1.141-0.478h-1.565z" fill="#231f20"/>
    </g>
    <g id="g80" transform="translate(20.567 369.39)">
     <path id="path82" d="m0 0h0.791v-4.42h1.623v-0.795h-2.414v5.215z" fill="#231f20"/>
    </g>
    <g id="g84" transform="translate(25.133 365.83)">
     <path id="path86" d="m0 0h0.801l-0.397 1.69-0.404-1.69zm0.638 3.611 1.414-5.287h-0.804l-0.223 0.836h-1.251l-0.222-0.836h-0.803l1.414 5.287h0.475z" fill="#231f20"/>
    </g>
    <g id="g88" transform="translate(30.707 364.17)">
     <path id="path90" d="m0 0-1.83 3.239v-3.239h-0.793v5.229h0.726l1.693-3.138v3.154h0.788v-5.245h-0.584z" fill="#231f20"/>
    </g>
    <g id="g92" transform="translate(35.829 365.27)">
     <path id="path94" d="m0 0v-0.907c-0.304-0.123-0.631-0.185-0.977-0.185-0.369 0-0.716 0.07-1.037 0.208-0.32 0.138-0.602 0.326-0.843 0.563-0.242 0.234-0.432 0.512-0.571 0.831-0.14 0.316-0.209 0.658-0.209 1.022 0 0.36 0.069 0.702 0.209 1.024 0.139 0.322 0.329 0.604 0.571 0.838 0.241 0.237 0.523 0.423 0.843 0.56 0.321 0.138 0.668 0.205 1.037 0.205 0.346 0 0.673-0.06 0.977-0.182v-0.916c-0.086 0.055-0.178 0.104-0.274 0.142-0.22 0.093-0.455 0.14-0.703 0.14-0.252 0-0.485-0.047-0.705-0.14-0.221-0.092-0.414-0.219-0.578-0.386-0.163-0.163-0.291-0.355-0.387-0.576-0.093-0.221-0.14-0.458-0.14-0.709 0-0.255 0.047-0.49 0.14-0.712 0.096-0.221 0.224-0.413 0.387-0.577 0.164-0.164 0.357-0.292 0.578-0.387 0.22-0.093 0.453-0.14 0.705-0.14 0.248 0 0.483 0.047 0.703 0.142 0.096 0.04 0.188 0.088 0.274 0.142" fill="#231f20"/>
    </g>
    <g id="g96" transform="translate(37.22 366.8)">
     <path id="path98" d="m0 0c0-0.254 0.048-0.489 0.142-0.712 0.094-0.221 0.222-0.413 0.386-0.577 0.166-0.164 0.356-0.292 0.577-0.387 0.22-0.093 0.456-0.139 0.707-0.139 0.248 0 0.481 0.046 0.703 0.139 0.218 0.095 0.411 0.223 0.574 0.387 0.162 0.164 0.29 0.356 0.386 0.577 0.094 0.223 0.139 0.458 0.139 0.712 0 0.251-0.045 0.488-0.139 0.709-0.096 0.221-0.224 0.414-0.386 0.577-0.163 0.166-0.356 0.294-0.574 0.385-0.222 0.093-0.455 0.14-0.703 0.14-0.251 0-0.487-0.047-0.707-0.14-0.221-0.091-0.411-0.219-0.577-0.385-0.164-0.163-0.292-0.356-0.386-0.577s-0.142-0.458-0.142-0.709m4.468 0c0-0.364-0.069-0.706-0.209-1.021-0.14-0.319-0.33-0.598-0.571-0.832-0.24-0.237-0.522-0.425-0.844-0.563-0.321-0.138-0.664-0.208-1.032-0.208-0.371 0-0.715 0.07-1.038 0.208-0.321 0.138-0.6 0.326-0.841 0.563-0.243 0.234-0.434 0.513-0.573 0.832-0.137 0.315-0.208 0.657-0.208 1.021 0 0.36 0.071 0.703 0.208 1.024 0.139 0.322 0.33 0.604 0.573 0.838 0.241 0.238 0.52 0.424 0.841 0.56 0.323 0.138 0.667 0.205 1.038 0.205 0.368 0 0.711-0.067 1.032-0.205 0.322-0.136 0.604-0.322 0.844-0.56 0.241-0.234 0.431-0.516 0.571-0.838 0.14-0.321 0.209-0.664 0.209-1.024" fill="#231f20"/>
    </g>
    <g id="g100" transform="translate(49.537 366.35)">
     <path id="path102" d="m0 0v3.068h0.787v-5.475l-2.399 3.275v-3.045h-0.786v5.456l2.398-3.279z" fill="#231f20"/>
    </g>
    <g id="g104" transform="translate(51.403 369.39)">
     <path id="path106" d="m0 0h2.394v-0.794h-1.604v-1.927h1.604v-0.793h-1.604v-0.906h1.604v-0.795h-2.394v5.215z" fill="#231f20"/>
    </g>
    <g id="g108" transform="translate(57.487 365.01)">
     <path id="path110" d="m0 0v0.868h-0.544v0.793h1.219v-2.31c-0.305-0.123-0.632-0.185-0.978-0.185-0.371 0-0.717 0.069-1.038 0.208-0.319 0.138-0.601 0.326-0.842 0.563-0.242 0.234-0.431 0.512-0.571 0.831-0.14 0.315-0.209 0.658-0.209 1.022 0 0.359 0.069 0.702 0.209 1.023 0.14 0.323 0.329 0.604 0.571 0.839 0.241 0.237 0.523 0.423 0.842 0.559 0.321 0.139 0.667 0.206 1.038 0.206 0.346 0 0.673-0.06 0.978-0.182v-0.916c-0.086 0.055-0.179 0.103-0.276 0.142-0.22 0.093-0.454 0.14-0.702 0.14-0.251 0-0.486-0.047-0.706-0.14-0.22-0.092-0.414-0.219-0.577-0.386-0.164-0.163-0.291-0.355-0.387-0.576-0.093-0.222-0.141-0.458-0.141-0.709 0-0.255 0.048-0.49 0.141-0.712 0.096-0.221 0.223-0.413 0.387-0.578 0.163-0.164 0.357-0.292 0.577-0.386 0.22-0.093 0.455-0.14 0.706-0.14 0.103 0 0.204 0.009 0.303 0.026" fill="#231f20"/>
    </g>
    <g id="g112" transform="translate(60.169 366.08)">
     <path id="path114" d="m0 0h0.06c0.351 0 0.651 0.124 0.899 0.374 0.248 0.251 0.374 0.554 0.374 0.908 0 0.355-0.126 0.656-0.374 0.905-0.248 0.251-0.548 0.376-0.899 0.376h-0.06v-2.563zm1.321-0.352 0.738-1.559h-0.843l-0.558 1.208c-0.188-0.056-0.388-0.085-0.598-0.085h-0.06v-1.116h-0.788v5.251h0.848c0.565 0 1.05-0.203 1.45-0.605 0.402-0.406 0.601-0.892 0.601-1.46 0-0.572-0.199-1.06-0.601-1.464-0.06-0.061-0.124-0.117-0.189-0.17" fill="#231f20"/>
    </g>
    <g id="g116" transform="translate(43.916 367.87)">
     <path id="path118" d="m0 0 0.114 0.127c0.092 0.09 0.137 0.199 0.137 0.324 0 0.069-0.022 0.123-0.066 0.165-0.043 0.043-0.101 0.064-0.17 0.064-0.074 0-0.132-0.022-0.178-0.067-0.044-0.043-0.066-0.102-0.066-0.178 0-0.057 0.016-0.118 0.045-0.182 0.029-0.065 0.084-0.153 0.163-0.272l0.021 0.019zm-0.466-1.083c-0.059-0.09-0.089-0.186-0.089-0.284 0-0.108 0.034-0.201 0.106-0.274 0.069-0.073 0.157-0.111 0.261-0.111 0.152 0 0.315 0.108 0.489 0.324l-0.446 0.674c-0.156-0.127-0.263-0.237-0.321-0.329m1.786 0.546c-0.013-0.053-0.027-0.095-0.038-0.131-0.011-0.038-0.025-0.073-0.041-0.111-0.013-0.037-0.031-0.077-0.05-0.12-0.016-0.045-0.039-0.097-0.066-0.158s-0.048-0.109-0.062-0.144c-0.014-0.036-0.03-0.063-0.042-0.086-0.014-0.02-0.026-0.042-0.039-0.058-0.01-0.02-0.024-0.041-0.042-0.064l0.566-0.811h-0.671l-0.256 0.366c-0.261-0.271-0.533-0.407-0.823-0.407-0.12 0-0.232 0.021-0.336 0.066-0.104 0.043-0.193 0.105-0.269 0.182-0.077 0.08-0.137 0.173-0.183 0.279-0.045 0.104-0.067 0.22-0.067 0.341 0 0.088 0.012 0.176 0.034 0.258 0.023 0.082 0.063 0.165 0.117 0.246 0.052 0.081 0.12 0.164 0.207 0.251 0.085 0.087 0.187 0.18 0.311 0.281-0.211 0.282-0.315 0.549-0.315 0.803 0 0.097 0.018 0.189 0.059 0.274 0.04 0.086 0.096 0.16 0.164 0.221 0.069 0.063 0.148 0.112 0.242 0.15 0.093 0.037 0.193 0.057 0.3 0.057 0.231 0 0.415-0.064 0.553-0.191 0.137-0.126 0.207-0.293 0.207-0.497 0-0.113-0.022-0.219-0.065-0.318-0.043-0.098-0.119-0.207-0.226-0.331-0.051-0.059-0.091-0.101-0.121-0.129-0.029-0.029-0.067-0.064-0.112-0.104l0.359-0.509c0.061 0.098 0.123 0.23 0.18 0.394h0.525z" fill="#231f20"/>
    </g>
    <g id="g120" transform="translate(63.713 366.8)">
     <path id="path122" d="m0 0c0-0.254 0.045-0.489 0.14-0.712 0.093-0.221 0.222-0.413 0.386-0.577 0.163-0.164 0.356-0.292 0.575-0.387 0.222-0.093 0.458-0.139 0.707-0.139 0.25 0 0.484 0.046 0.704 0.139 0.219 0.095 0.412 0.223 0.573 0.387 0.164 0.164 0.291 0.356 0.386 0.577 0.093 0.223 0.141 0.458 0.141 0.712 0 0.251-0.048 0.488-0.141 0.709-0.095 0.221-0.222 0.414-0.386 0.577-0.161 0.166-0.354 0.294-0.573 0.385-0.22 0.093-0.454 0.14-0.704 0.14-0.249 0-0.485-0.047-0.707-0.14-0.219-0.091-0.412-0.219-0.575-0.385-0.164-0.163-0.293-0.356-0.386-0.577-0.095-0.221-0.14-0.458-0.14-0.709m4.465 0c0-0.364-0.069-0.706-0.208-1.021-0.139-0.319-0.332-0.598-0.571-0.832-0.242-0.237-0.523-0.425-0.844-0.563-0.32-0.138-0.665-0.208-1.034-0.208s-0.715 0.07-1.035 0.208c-0.321 0.138-0.602 0.326-0.845 0.563-0.241 0.234-0.431 0.513-0.571 0.832-0.138 0.315-0.208 0.657-0.208 1.021 0 0.36 0.07 0.703 0.208 1.024 0.14 0.322 0.33 0.604 0.571 0.838 0.243 0.238 0.524 0.424 0.845 0.56 0.32 0.138 0.666 0.205 1.035 0.205s0.714-0.067 1.034-0.205c0.321-0.136 0.602-0.322 0.844-0.56 0.239-0.234 0.432-0.516 0.571-0.838 0.139-0.321 0.208-0.664 0.208-1.024" fill="#231f20"/>
    </g>
    <g id="g124" transform="translate(71.705 369.62)">
     <path id="path126" d="m0 0v-1.215h-0.629v2.498l1.19-0.945c0.003-0.004 0.037-0.032 0.103-0.082 0.065-0.053 0.107-0.086 0.127-0.102 0.02-0.014 0.064-0.049 0.131-0.1 0.068-0.053 0.115-0.092 0.147-0.114 0.031-0.022 0.079-0.057 0.146-0.101 0.064-0.045 0.118-0.077 0.159-0.099 0.041-0.024 0.091-0.052 0.149-0.082 0.059-0.032 0.11-0.054 0.153-0.068 0.043-0.016 0.089-0.028 0.138-0.041 0.049-0.011 0.093-0.017 0.133-0.017 0.147 0 0.283 0.045 0.409 0.133 0.126 0.089 0.19 0.204 0.19 0.345 0 0.15-0.065 0.266-0.199 0.349-0.132 0.081-0.278 0.116-0.434 0.107v0.767c0.373-0.027 0.677-0.143 0.91-0.353 0.236-0.212 0.352-0.499 0.352-0.866 0-0.34-0.114-0.626-0.344-0.857-0.228-0.232-0.514-0.346-0.85-0.346-0.245 0-0.471 0.054-0.679 0.167-0.206 0.108-0.429 0.269-0.668 0.476l-0.634 0.546z" fill="#231f20"/>
    </g>
    <g id="g128" transform="translate(74.251 366.77)">
     <path id="path130" d="m0 0c0 0.119-0.05 0.222-0.146 0.31-0.099 0.089-0.225 0.153-0.377 0.194s-0.294 0.071-0.425 0.088c-0.132 0.019-0.254 0.028-0.369 0.028-0.112 0-0.233-0.009-0.367-0.028-0.133-0.017-0.275-0.047-0.43-0.088-0.154-0.041-0.28-0.105-0.38-0.194-0.101-0.088-0.152-0.191-0.152-0.31 0-0.12 0.051-0.224 0.152-0.312 0.1-0.086 0.226-0.149 0.38-0.191 0.155-0.041 0.297-0.07 0.429-0.09 0.131-0.015 0.252-0.026 0.368-0.026 0.115 0 0.237 0.011 0.369 0.026 0.131 0.02 0.273 0.049 0.425 0.09 0.152 0.042 0.278 0.105 0.377 0.191 0.096 0.088 0.146 0.192 0.146 0.312m0.501 0.519c0.086-0.154 0.128-0.328 0.128-0.519 0-0.188-0.042-0.362-0.128-0.517-0.085-0.157-0.194-0.284-0.33-0.382-0.133-0.099-0.289-0.18-0.465-0.246-0.178-0.065-0.352-0.111-0.523-0.139-0.173-0.028-0.342-0.042-0.511-0.042-0.165 0-0.335 0.014-0.506 0.042-0.169 0.028-0.343 0.075-0.518 0.14-0.175 0.069-0.33 0.153-0.464 0.249-0.134 0.1-0.245 0.227-0.33 0.384-0.084 0.152-0.128 0.324-0.128 0.511 0 0.188 0.044 0.358 0.128 0.514 0.085 0.156 0.196 0.282 0.33 0.382 0.134 0.098 0.289 0.182 0.464 0.248s0.349 0.116 0.518 0.142c0.171 0.028 0.341 0.042 0.506 0.042 0.169 0 0.338-0.014 0.511-0.042 0.171-0.026 0.345-0.074 0.523-0.14 0.176-0.065 0.332-0.148 0.465-0.246 0.136-0.098 0.245-0.224 0.33-0.381" fill="#231f20"/>
    </g>
    <g id="g132" transform="translate(74.251 363.93)">
     <path id="path134" d="m0 0c0 0.12-0.05 0.222-0.146 0.31-0.099 0.09-0.225 0.155-0.377 0.196-0.152 0.039-0.294 0.07-0.425 0.088-0.132 0.018-0.254 0.027-0.369 0.027-0.112 0-0.233-0.009-0.367-0.027-0.133-0.018-0.275-0.049-0.43-0.088-0.154-0.041-0.28-0.106-0.38-0.196-0.101-0.088-0.152-0.19-0.152-0.31s0.051-0.224 0.152-0.311c0.1-0.087 0.226-0.149 0.38-0.191 0.155-0.04 0.297-0.072 0.429-0.089 0.131-0.017 0.252-0.027 0.368-0.027 0.115 0 0.237 0.01 0.369 0.027 0.131 0.017 0.273 0.049 0.425 0.089 0.152 0.042 0.278 0.104 0.377 0.191 0.096 0.087 0.146 0.191 0.146 0.311m0.501 0.521c0.086-0.157 0.128-0.33 0.128-0.521 0-0.187-0.042-0.361-0.128-0.517-0.085-0.156-0.194-0.281-0.33-0.381-0.133-0.099-0.289-0.18-0.465-0.245-0.178-0.066-0.352-0.113-0.523-0.141-0.173-0.028-0.342-0.041-0.511-0.041-0.165 0-0.335 0.013-0.506 0.041-0.169 0.028-0.343 0.076-0.518 0.143s-0.33 0.15-0.464 0.247c-0.134 0.1-0.245 0.227-0.33 0.383-0.084 0.154-0.128 0.326-0.128 0.511 0 0.188 0.044 0.359 0.128 0.515 0.085 0.155 0.196 0.283 0.33 0.381s0.289 0.181 0.464 0.249c0.175 0.065 0.349 0.114 0.518 0.142 0.171 0.028 0.341 0.041 0.506 0.041 0.169 0 0.338-0.013 0.511-0.041 0.171-0.028 0.345-0.075 0.523-0.14 0.176-0.065 0.332-0.147 0.465-0.246 0.136-0.099 0.245-0.225 0.33-0.38" fill="#231f20"/>
    </g>
   </g>
  </g>
 </g>
</svg>
