<?xml version="1.0" encoding="UTF-8" standalone="no"?>
<svg id="svg2" xmlns:rdf="http://www.w3.org/1999/02/22-rdf-syntax-ns#" xmlns="http://www.w3.org/2000/svg" xml:space="preserve" height="42" width="214" version="1.1" xmlns:cc="http://creativecommons.org/ns#" xmlns:dc="http://purl.org/dc/elements/1.1/" viewBox="0 0 214 42"><metadata id="metadata8"><rdf:RDF><cc:Work rdf:about=""><dc:format>image/svg+xml</dc:format><dc:type rdf:resource="http://purl.org/dc/dcmitype/StillImage"/><dc:title/></cc:Work></rdf:RDF></metadata><defs id="defs6"><clipPath id="clipPath16" clipPathUnits="userSpaceOnUse"><path id="path18" d="m0 345.88h551v-345.88h-551v345.88z"/></clipPath></defs><g id="g10" transform="matrix(.45092 0 0 -.45092 -17.24 99.045)"><g id="g12"><g id="g14" clip-path="url(#clipPath16)"><g id="g20" transform="translate(96.064 160.22)"><path id="path22" d="m0 0-3.908 16.264c-0.98 3.924-1.604 7.965-2.203 11.853h-1.233l-6.103-28.117h13.447zm-22.123-33.379h-35.467l32.037 92.192h37.047l32.889-92.192h-35.457l-3.047 11.491h-25.321l-2.681-11.491z" fill="#1d1d1b"/></g><g id="g24" transform="translate(141.29 219.04)"><path id="path26" d="m0 0h33.52v-62.605h28.123v-29.584h-61.643v92.189z" fill="#1d1d1b"/></g><g id="g28" transform="translate(205.75 219.04)"><path id="path30" d="m0 0h61.742v-26.397h-28.002v-9.542h24.576v-23.956h-24.576v-32.294h-33.74v92.189z" fill="#1d1d1b"/></g><g id="g32" transform="translate(303.56 178.19)"><path id="path34" d="m0 0h2.332c5.506 0 10.992 0.867 10.992 7.721 0 7.088-5.019 7.941-10.754 7.941h-2.57v-15.662zm-32.764 40.845h40.473c20.781 0 38.396-8.803 38.396-32.021 0-13.941-5.382-19.817-17.865-23.958v-0.748c1.725-1.345 3.795-2.797 5.637-5.507l20.039-29.953h-38.635l-14.662 29.584h-0.619v-29.584h-32.764v92.187z" fill="#1d1d1b"/></g><g id="g36" transform="translate(359.2 219.04)"><path id="path38" d="m0 0h61.992v-25.184h-28.24v-8.813h25.807v-23.946h-25.807v-9.053h29.221v-25.193h-62.973v92.189z" fill="#1d1d1b"/></g><g id="g40" transform="translate(457.27 154.49)"><path id="path42" d="m0 0h2.064c11.135 0 19.694 5.128 19.694 17.234 0 12.954-7.465 18.478-19.694 18.478h-2.064v-35.712zm-33.508 64.546h34.11c30.933 0 54.658-13.56 54.658-47.428 0-27.394-19.307-44.762-46.35-44.762h-42.418v92.19z" fill="#1d1d1b"/></g></g></g></g></svg>
