<?xml version="1.0" encoding="UTF-8" standalone="no"?>
<svg
   xmlns:dc="http://purl.org/dc/elements/1.1/"
   xmlns:cc="http://creativecommons.org/ns#"
   xmlns:rdf="http://www.w3.org/1999/02/22-rdf-syntax-ns#"
   xmlns:svg="http://www.w3.org/2000/svg"
   xmlns="http://www.w3.org/2000/svg"
   viewBox="0 0 688.75 432.35376"
   height="432.35376"
   width="688.75"
   xml:space="preserve"
   version="1.1"
   id="svg2"><metadata
     id="metadata8"><rdf:RDF><cc:Work
         rdf:about=""><dc:format>image/svg+xml</dc:format><dc:type
           rdf:resource="http://purl.org/dc/dcmitype/StillImage" /><dc:title></dc:title></cc:Work></rdf:RDF></metadata><defs
     id="defs6"><clipPath
       id="clipPath16"
       clipPathUnits="userSpaceOnUse"><path
         id="path18"
         d="m 0,345.883 551,0 L 551,0 0,0 0,345.883 Z" /></clipPath></defs><g
     transform="matrix(1.25,0,0,-1.25,0,432.35375)"
     id="g10"><g
       id="g12"><g
         clip-path="url(#clipPath16)"
         id="g14"><g
           transform="translate(96.0645,160.2246)"
           id="g20"><path
             id="path22"
             style="fill:#1d1d1b;fill-opacity:1;fill-rule:nonzero;stroke:none"
             d="m 0,0 -3.908,16.264 c -0.98,3.924 -1.604,7.965 -2.203,11.853 l -1.233,0 L -13.447,0 0,0 Z m -22.123,-33.379 -35.467,0 32.037,92.192 37.047,0 32.889,-92.192 -35.457,0 -3.047,11.491 -25.321,0 -2.681,-11.491 z" /></g><g
           transform="translate(141.293,219.0352)"
           id="g24"><path
             id="path26"
             style="fill:#1d1d1b;fill-opacity:1;fill-rule:nonzero;stroke:none"
             d="m 0,0 33.52,0 0,-62.605 28.123,0 0,-29.584 L 0,-92.189 0,0 Z" /></g><g
           transform="translate(205.7461,219.0352)"
           id="g28"><path
             id="path30"
             style="fill:#1d1d1b;fill-opacity:1;fill-rule:nonzero;stroke:none"
             d="m 0,0 61.742,0 0,-26.397 -28.002,0 0,-9.542 24.576,0 0,-23.956 -24.576,0 0,-32.294 -33.74,0 L 0,0 Z" /></g><g
           transform="translate(303.5605,178.1875)"
           id="g32"><path
             id="path34"
             style="fill:#1d1d1b;fill-opacity:1;fill-rule:nonzero;stroke:none"
             d="m 0,0 2.332,0 c 5.506,0 10.992,0.867 10.992,7.721 0,7.088 -5.019,7.941 -10.754,7.941 L 0,15.662 0,0 Z m -32.764,40.845 40.473,0 c 20.781,0 38.396,-8.803 38.396,-32.021 0,-13.941 -5.382,-19.817 -17.865,-23.958 l 0,-0.748 c 1.725,-1.345 3.795,-2.797 5.637,-5.507 l 20.039,-29.953 -38.635,0 -14.662,29.584 -0.619,0 0,-29.584 -32.764,0 0,92.187 z" /></g><g
           transform="translate(359.1953,219.0352)"
           id="g36"><path
             id="path38"
             style="fill:#1d1d1b;fill-opacity:1;fill-rule:nonzero;stroke:none"
             d="m 0,0 61.992,0 0,-25.184 -28.24,0 0,-8.813 25.807,0 0,-23.946 -25.807,0 0,-9.053 29.221,0 0,-25.193 L 0,-92.189 0,0 Z" /></g><g
           transform="translate(457.2656,154.4893)"
           id="g40"><path
             id="path42"
             style="fill:#1d1d1b;fill-opacity:1;fill-rule:nonzero;stroke:none"
             d="m 0,0 2.064,0 c 11.135,0 19.694,5.128 19.694,17.234 0,12.954 -7.465,18.478 -19.694,18.478 L 0,35.712 0,0 Z m -33.508,64.546 34.11,0 c 30.933,0 54.658,-13.56 54.658,-47.428 0,-27.394 -19.307,-44.762 -46.35,-44.762 l -42.418,0 0,92.19 z" /></g></g></g></g></svg>