<?xml version="1.0" encoding="UTF-8" standalone="no"?>
<svg
   xmlns:dc="http://purl.org/dc/elements/1.1/"
   xmlns:cc="http://creativecommons.org/ns#"
   xmlns:rdf="http://www.w3.org/1999/02/22-rdf-syntax-ns#"
   xmlns:svg="http://www.w3.org/2000/svg"
   xmlns="http://www.w3.org/2000/svg"
   version="1.1"
   id="svg14476"
   viewBox="0 0 200.00001 129.99999"
   height="130"
   width="200">
  <defs
     id="defs14478" />
  <metadata
     id="metadata14481">
    <rdf:RDF>
      <cc:Work
         rdf:about="">
        <dc:format>image/svg+xml</dc:format>
        <dc:type
           rdf:resource="http://purl.org/dc/dcmitype/StillImage" />
        <dc:title></dc:title>
      </cc:Work>
    </rdf:RDF>
  </metadata>
  <g
     transform="translate(0,-922.36225)"
     id="layer1">
    <g
       id="g14213"
       transform="matrix(3.4971303,0,0,-3.4971303,160.68296,966.03935)">
      <path
         transform="translate(-35.039,-14.2071)"
         d="m 0,0 -1.84,0 -0.308,-0.045 0,-0.242 0.308,-0.041 0.254,0 0.117,0.041 0,-0.041 c 0.118,0 0.262,0.012 0.433,0.041 0.024,0 0.289,-0.014 0.796,-0.041 0.076,0 0.176,0.033 0.311,0.093 L 0,0 Z"
         style="fill:#231f20;fill-opacity:1;fill-rule:nonzero;stroke:none"
         id="path10260" />
      <path
         transform="translate(-35.2197,-14.9122)"
         d="m 0,0 0,0.096 -1.968,0 0,-0.137 0.07,-0.098 0.299,0.046 1.482,0 C -0.036,-0.093 0,-0.062 0,0"
         style="fill:#231f20;fill-opacity:1;fill-rule:nonzero;stroke:none"
         id="path10264" />
      <path
         transform="translate(-37.1279,-12.5166)"
         d="M 0,0 0.275,0 C 0.429,0 0.579,-0.017 0.717,-0.048 0.869,-0.017 1.017,0 1.174,0 L 1.621,0 2.002,-0.048 C 2.002,-0.017 2.022,0 2.067,0 2.449,-0.033 2.743,-0.048 2.958,-0.048 l 0.998,0 c 0.112,0.024 0.18,0.12 0.18,0.281 l 0,0.188 c 0,0.07 -0.138,0.131 -0.399,0.185 l -0.336,-0.043 -0.502,0 -0.11,-0.05 c 0,0.035 -0.016,0.05 -0.056,0.05 l -1.673,0 -0.277,-0.05 c 0,0.035 -0.059,0.05 -0.176,0.05 l -0.554,0 L -0.06,0.513 0,0.282 -0.06,0.191 C -0.019,0.134 0,0.072 0,0"
         style="fill:#231f20;fill-opacity:1;fill-rule:nonzero;stroke:none"
         id="path10268" />
      <path
         transform="translate(-34.9678,-13.6895)"
         d="M 0,0 C 0,0.07 -0.329,0.116 -0.989,0.137 -1.375,0.105 -1.745,0.092 -2.097,0.092 -2.16,0.092 -2.206,0.016 -2.22,-0.145 l 0,-0.091 c 0.045,0 0.112,-0.016 0.191,-0.043 0.42,0.027 0.741,0.043 0.984,0.043 l 0.429,0 0.123,0.049 c 0,-0.032 0.014,-0.049 0.059,-0.049 l 0.122,0 L 0,-0.187 0,0 Z"
         style="fill:#231f20;fill-opacity:1;fill-rule:nonzero;stroke:none"
         id="path10272" />
      <path
         transform="translate(-35.9043,-15.8516)"
         d="m 0,0 c 0,0.033 0.111,0.048 0.334,0.048 l 0,0.139 C -0.767,0.146 -1.236,0.146 -1.089,0.146 -1.089,0.08 -0.721,0.033 0,0"
         style="fill:#231f20;fill-opacity:1;fill-rule:nonzero;stroke:none"
         id="path10276" />
      <path
         transform="translate(-29.9814,-4.5078997)"
         d="m 0,0 0,-0.029 -0.206,0.047 -2.546,0 -0.204,-0.047 0,-0.094 c 0,-0.063 0.15,-0.109 0.458,-0.143 0,0.034 0.007,0.049 0.041,0.049 l 0.085,-0.049 c 0.03,0 0.07,0.018 0.124,0.049 0.153,-0.031 0.274,-0.049 0.375,-0.049 l 1.582,0 c 0.076,0 0.161,0.032 0.249,0.094 l 0.007,-0.008 c 0.09,0.012 0.151,0.057 0.169,0.142 C 0.087,-0.037 0.047,-0.023 0,0"
         style="fill:#231f20;fill-opacity:1;fill-rule:nonzero;stroke:none"
         id="path10280" />
      <path
         transform="translate(-32.1474,-6.2246997)"
         d="M 0,0 1.212,0 1.416,-0.051 C 1.416,-0.021 1.433,0 1.457,0 1.611,-0.037 1.737,-0.051 1.839,-0.051 l 0.165,0 c 0.054,0 0.081,0.03 0.081,0.092 0.02,0 0.037,-0.006 0.054,-0.02 0.018,0.065 0.032,0.137 0.055,0.2 C 2.186,0.229 2.179,0.229 2.166,0.234 l 0,-0.005 c -0.061,0 -0.116,0.019 -0.162,0.05 -0.098,0 -0.223,-0.017 -0.378,-0.05 -0.822,0.033 -1.545,0.05 -2.162,0.05 l -0.215,-0.05 0,-0.094 C -0.751,0.042 -0.496,0 0,0"
         style="fill:#231f20;fill-opacity:1;fill-rule:nonzero;stroke:none"
         id="path10284" />
      <path
         transform="translate(-32.7334,-6.9287997)"
         d="M 0,0 C 0.148,0.028 0.229,0.044 0.255,0.044 L 0.839,0 0.921,0.044 C 0.921,0.015 0.937,0 0.964,0 l 1.582,0 0.206,0.044 0,-0.006 0.019,0 c 0.063,0 0.121,0.055 0.138,0.125 C 2.859,0.173 2.808,0.181 2.752,0.2 l 0,-0.013 -0.291,0.042 -1.458,0 -0.288,0.052 C 0.715,0.248 0.694,0.229 0.667,0.229 0.525,0.261 0.442,0.281 0.421,0.281 0.387,0.281 0.348,0.261 0.296,0.229 0.246,0.261 0.19,0.281 0.13,0.281 l -0.167,0 C -0.127,0.229 -0.165,0.181 -0.165,0.138 -0.165,0.09 -0.112,0.044 0,0"
         style="fill:#231f20;fill-opacity:1;fill-rule:nonzero;stroke:none"
         id="path10288" />
      <path
         transform="translate(-32.6445,-3.9785997)"
         d="m 0,0 0.125,0 c 1.613,-0.025 2.465,-0.081 2.532,-0.172 0.074,0.007 0.149,0.004 0.223,0.014 L 2.917,0.055 C 2.88,0.176 2.644,0.238 2.204,0.238 l -2.243,0 -0.215,-0.047 0,-0.191 c 0.031,0 0.067,-0.012 0.128,-0.041 0.029,0 0.07,0.016 0.126,0.041"
         style="fill:#231f20;fill-opacity:1;fill-rule:nonzero;stroke:none"
         id="path10292" />
      <path
         transform="translate(-35.4521,-15.2891)"
         d="m 0,0 -1.671,0 0,-0.137 1.317,0 0.586,0.046 C 0.232,-0.04 0.153,-0.008 0,0"
         style="fill:#231f20;fill-opacity:1;fill-rule:nonzero;stroke:none"
         id="path10296" />
      <path
         transform="translate(-32.9922,-10.9698)"
         d="m 0,0 -4.025,0 c -0.055,0 -0.113,-0.06 -0.17,-0.187 l 0.059,-0.092 C -4.179,-0.337 -4.195,-0.396 -4.195,-0.47 l 0,-0.184 c 0,-0.066 0.038,-0.095 0.112,-0.095 l 2.069,0 c 0.153,0 0.361,0.016 0.612,0.047 0.04,-0.031 0.184,-0.047 0.447,-0.047 l 0.615,0 c 0.257,0 0.392,0.189 0.392,0.562 C 0.012,-0.13 0,-0.069 0,0"
         style="fill:#231f20;fill-opacity:1;fill-rule:nonzero;stroke:none"
         id="path10300" />
      <path
         transform="translate(-32.6836,-5.4794997)"
         d="m 0,0 0.118,0 0.087,0.048 c 0,-0.029 0.165,-0.059 0.496,-0.092 0,0.033 0.016,0.044 0.046,0.044 0,-0.025 0.014,-0.044 0.039,-0.044 l 1.71,0 C 2.575,0.007 2.621,0.051 2.621,0.099 L 2.578,0.193 C 1.703,0.221 1.05,0.237 0.617,0.237 l -0.793,0 C -0.215,0.237 -0.252,0.204 -0.254,0.142 -0.233,0.051 -0.147,0 0,0"
         style="fill:#231f20;fill-opacity:1;fill-rule:nonzero;stroke:none"
         id="path10304" />
      <path
         transform="translate(-30.3935,-7.3554997)"
         d="m 0,0 -0.083,-0.044 c -0.194,0 -0.976,0.015 -2.343,0.044 -0.044,0 -0.069,-0.029 -0.079,-0.096 l 0,-0.045 c 0,-0.059 0.025,-0.093 0.079,-0.093 l 1.133,0 c 0.146,0 0.379,-0.014 0.706,-0.049 0,0.035 0.019,0.049 0.045,0.049 0.149,-0.033 0.276,-0.049 0.373,-0.049 l 0.375,0 c 0.079,0.054 0.125,0.098 0.125,0.142 C 0.331,-0.074 0.221,-0.029 0,0"
         style="fill:#231f20;fill-opacity:1;fill-rule:nonzero;stroke:none"
         id="path10308" />
      <path
         transform="translate(-32.6035,-13.2168)"
         d="m 0,0 c 0.047,0.025 0.104,0.045 0.165,0.045 l 0.042,0 C 0.267,0.045 0.32,0.025 0.374,0 l 0.082,0.045 c 0.134,0 0.3,-0.02 0.5,-0.045 L 1.04,0.045 1.125,0 C 1.151,0 1.192,0.014 1.248,0.045 1.296,0.014 1.351,0 1.417,0 L 1.543,0 1.624,0.045 C 1.624,0.014 1.641,0 1.668,0 L 2.331,0 2.622,0.045 C 2.627,0.038 2.627,0.028 2.627,0.021 2.678,0.071 2.719,0.141 2.742,0.207 2.727,0.229 2.71,0.247 2.689,0.273 l -1.481,0 -0.21,0.049 C 0.998,0.291 0.95,0.273 0.874,0.273 l -0.337,0 c -0.137,0 -0.346,0.018 -0.617,0.049 0,-0.031 -0.033,-0.049 -0.087,-0.049 l 0,-0.136 C -0.167,0.086 -0.113,0.045 0,0"
         style="fill:#231f20;fill-opacity:1;fill-rule:nonzero;stroke:none"
         id="path10312" />
      <path
         transform="translate(-32.3965,-13.9688)"
         d="M 0,0 C 0.742,0.027 1.2,0.043 1.373,0.043 1.444,0.043 1.559,0.027 1.706,0 1.745,0.027 1.841,0.043 2.003,0.043 l 0.331,0 0.081,0.05 C 2.42,0.072 2.428,0.061 2.435,0.041 2.486,0.066 2.558,0.113 2.6,0.148 l -0.008,0.008 0.004,0 C 2.587,0.162 2.585,0.17 2.573,0.178 2.563,0.198 2.558,0.219 2.563,0.237 2.541,0.242 2.528,0.252 2.517,0.26 l -0.052,0 C 2.464,0.252 2.464,0.242 2.464,0.23 L 2.042,0.279 1.416,0.279 1.21,0.23 c 0,0.036 -0.043,0.049 -0.127,0.049 l -0.541,0 L 0.46,0.23 c 0,0.036 -0.014,0.049 -0.046,0.049 l -0.456,0 C -0.248,0.279 -0.358,0.23 -0.374,0.133 -0.374,0.066 -0.248,0.024 0,0"
         style="fill:#231f20;fill-opacity:1;fill-rule:nonzero;stroke:none"
         id="path10316" />
      <path
         transform="translate(-31.6055,-14.6778)"
         d="M 0,0 0.292,-0.047 C 0.292,-0.017 0.31,0 0.336,0 0.387,-0.028 0.434,-0.047 0.499,-0.047 l 0.798,0 c 0.063,0 0.177,0.03 0.332,0.084 C 1.646,0.086 1.652,0.143 1.615,0.167 1.604,0.176 1.597,0.182 1.589,0.191 L 0.499,0.275 C 0.169,0.251 -0.213,0.235 -0.624,0.235 l -0.29,0 c -0.146,0 -0.229,-0.046 -0.251,-0.143 l 0,-0.043 L -0.96,0 0,0 Z"
         style="fill:#231f20;fill-opacity:1;fill-rule:nonzero;stroke:none"
         id="path10320" />
      <path
         transform="translate(-32.6035,-15.3799)"
         d="M 0,0 2.461,0 2.669,0.046 2.672,0.042 C 2.687,0.052 2.694,0.06 2.71,0.067 2.704,0.112 2.693,0.153 2.687,0.198 2.678,0.198 2.678,0.201 2.669,0.201 l 0,-0.016 -0.289,0.05 -1.463,0 -0.296,0.042 C 0.621,0.251 0.564,0.235 0.456,0.235 l -0.497,0 C -0.091,0.235 -0.12,0.201 -0.13,0.142 -0.08,0.046 -0.041,0 0,0"
         style="fill:#231f20;fill-opacity:1;fill-rule:nonzero;stroke:none"
         id="path10324" />
      <path
         transform="translate(-30.9795,-16.084)"
         d="M 0,0 0.418,-0.05 C 0.418,-0.018 0.446,0 0.502,0 l 0.29,-0.05 c 0.108,0.027 0.187,0.038 0.226,0.046 0.02,0.041 0.039,0.082 0.06,0.119 l 0,0.026 -0.009,0 c -0.006,-0.004 -0.015,0 -0.024,0 l -0.047,0 -0.123,0.091 -1.543,0 -0.5,0.048 c 0,-0.032 -0.042,-0.048 -0.126,-0.048 L -1.499,0.28 -1.754,0.232 -1.754,0.044 -1.54,0 0,0 Z"
         style="fill:#231f20;fill-opacity:1;fill-rule:nonzero;stroke:none"
         id="path10328" />
      <path
         transform="translate(-32.5195,-17.4454)"
         d="M 0,0 0.995,0 1.206,-0.049 C 1.206,-0.014 1.226,0 1.25,0 L 1.496,-0.049 C 1.764,-0.014 2.01,0 2.247,0 l 0.272,0 c 0,0 0,0.001 0.003,0.004 0.007,0.012 0.014,0.017 0.021,0.033 0.015,0.03 0.008,0.121 -0.005,0.197 l 0,-0.001 -0.206,0.047 -0.12,0 C 2.056,0.28 1.862,0.267 1.629,0.233 L 1.54,0.28 C 1.492,0.25 1.439,0.233 1.377,0.233 l -0.171,0 C 1.105,0.233 0.979,0.25 0.833,0.28 0.778,0.25 0.733,0.233 0.707,0.233 0.443,0.267 0.196,0.28 -0.046,0.28 l -0.118,0 c -0.05,0 -0.08,-0.026 -0.087,-0.092 l 0,-0.048 C -0.232,0.043 -0.15,0 0,0"
         style="fill:#231f20;fill-opacity:1;fill-rule:nonzero;stroke:none"
         id="path10332" />
      <path
         transform="translate(-32.3535,-18.0596)"
         d="m 0,0 c 0.371,-0.032 0.691,-0.044 0.958,-0.044 l 0.082,0 0.289,-0.048 c 0,0.03 0.019,0.048 0.045,0.048 l 0.248,-0.048 0.13,0 0.08,0.048 c 0,-0.033 0.016,-0.048 0.044,-0.048 l 0.29,0 0.206,0.048 0.005,-0.008 C 2.404,-0.009 2.437,0.037 2.4,0.07 2.377,0.097 2.356,0.117 2.343,0.147 l -0.177,0.042 -2.291,0 L -0.33,0.241 -0.417,0.095 -0.417,0 C -0.363,0 -0.3,-0.011 -0.25,-0.044 L 0,0 Z"
         style="fill:#231f20;fill-opacity:1;fill-rule:nonzero;stroke:none"
         id="path10336" />
      <path
         transform="translate(-35.039,-12.8487)"
         d="m 0,0 -1.958,0 c -0.067,0 -0.108,-0.031 -0.126,-0.094 l 0,-0.421 c 0.715,0.036 1.166,0.051 1.355,0.051 0.104,0 0.266,-0.015 0.489,-0.051 0,0.032 0.097,0.058 0.294,0.078 0.006,0.114 0.017,0.227 0.04,0.339 L 0,0 Z"
         style="fill:#231f20;fill-opacity:1;fill-rule:nonzero;stroke:none"
         id="path10340" />
      <path
         transform="translate(-29.9228,-18.5918)"
         d="M 0,0 C -0.018,0.025 -0.022,0.052 -0.022,0.078 -0.042,0.096 -0.06,0.12 -0.06,0.16 -0.074,0.176 -0.083,0.189 -0.085,0.205 -0.172,0.198 -0.232,0.182 -0.265,0.16 l 0,0.049 -0.29,-0.049 -1.876,0 -0.212,0.049 c 0,-0.031 -0.013,-0.049 -0.038,-0.049 l -0.233,0.045 c -0.024,-0.127 -0.054,-0.253 -0.084,-0.373 0.079,0.003 0.169,0.014 0.277,0.048 0.178,-0.034 0.361,-0.049 0.539,-0.049 l 0.122,0 c 0.102,0 0.224,0.015 0.377,0.049 0.046,-0.034 0.123,-0.049 0.21,-0.049 0.143,0 0.273,0.015 0.372,0.049 0.151,-0.034 0.287,-0.049 0.422,-0.049 l 0.539,0 0.131,-0.02 C 0.005,-0.129 0.005,-0.062 0,0"
         style="fill:#231f20;fill-opacity:1;fill-rule:nonzero;stroke:none"
         id="path10344" />
      <path
         transform="translate(-37.1875,-8.0566997)"
         d="m 0,0 0,-0.703 0.065,-0.095 0.737,0.046 0.865,0 c 0.211,0 0.394,0.047 0.553,0.145 -0.042,0.494 -0.126,0.743 -0.249,0.743 l -0.185,0 -0.367,-0.04 C 1.343,0.119 1.275,0.136 1.23,0.136 0.412,0.136 0,0.09 0,0"
         style="fill:#231f20;fill-opacity:1;fill-rule:nonzero;stroke:none"
         id="path10348" />
      <path
         transform="translate(-30.1055,-16.7432)"
         d="M 0,0 C 0.062,0 0.082,0.034 0.082,0.095 0.071,0.188 -0.041,0.24 -0.249,0.24 l -2.29,0 c -0.05,0 -0.079,-0.034 -0.089,-0.094 l 0,-0.094 L -2.414,0 0,0 Z"
         style="fill:#231f20;fill-opacity:1;fill-rule:nonzero;stroke:none"
         id="path10352" />
      <path
         transform="translate(-30.4414,-8.8544997)"
         d="m 0,0 -2.419,0 0,-0.144 0.041,-0.093 c 0.096,0 0.166,0.016 0.216,0.051 0.189,-0.035 0.341,-0.051 0.456,-0.051 l 1.123,0 0.423,0.051 c 0,-0.035 0.08,-0.051 0.247,-0.051 l 0.292,0.051 0,0.091 L 0.299,0.046 0,0 Z"
         style="fill:#231f20;fill-opacity:1;fill-rule:nonzero;stroke:none"
         id="path10356" />
      <path
         transform="translate(-37.1875,-9.7460997)"
         d="M 0,0 1.727,0 C 2.022,0 2.193,0.048 2.22,0.14 l 0,0.231 c 0,0.234 -0.069,0.358 -0.198,0.377 l -0.236,0 C 1.523,0.748 1.249,0.762 0.984,0.797 0.82,0.762 0.681,0.748 0.563,0.748 L 0.245,0.797 C 0.083,0.742 0,0.621 0,0.42 L 0,0 Z"
         style="fill:#231f20;fill-opacity:1;fill-rule:nonzero;stroke:none"
         id="path10360" />
      <path
         transform="translate(-35.2168,-7.5898997)"
         d="m 0,0 0,0.045 c 0,0.07 -0.026,0.135 -0.063,0.189 -0.268,0.362 -0.536,0.584 -0.795,0.657 l -0.432,0 c -0.101,0 -0.31,-0.202 -0.615,-0.609 l 0,-0.425 0.179,0 c 0.388,0 0.913,0.02 1.608,0.056 C -0.044,-0.087 0,-0.063 0,0"
         style="fill:#231f20;fill-opacity:1;fill-rule:nonzero;stroke:none"
         id="path10364" />
      <path
         transform="translate(-30.1435,-8.1054997)"
         d="m 0,0 -2.717,0 0,-0.091 0.041,-0.093 c 0.734,-0.033 1.166,-0.052 1.293,-0.052 0.247,0.037 0.391,0.052 0.42,0.052 0,-0.033 0.026,-0.052 0.083,-0.052 l 0.088,0.052 c 0,-0.033 0.012,-0.052 0.045,-0.052 l 0.582,0 c 0.136,0 0.219,0.048 0.246,0.145 C 0.081,-0.037 0.054,-0.01 0,0"
         style="fill:#231f20;fill-opacity:1;fill-rule:nonzero;stroke:none"
         id="path10368" />
      <path
         transform="translate(-33.1806,-10.2422)"
         d="m 0,0 -0.021,0 c 0,0.169 -0.098,0.259 -0.311,0.259 l -0.51,0 -0.623,-0.046 c 0,0.03 -0.03,0.046 -0.104,0.046 l -0.104,-0.046 0,0.046 -0.307,-0.046 c -0.028,0 -0.128,0.014 -0.31,0.046 -0.305,-0.032 -0.476,-0.046 -0.519,-0.046 -0.037,0 -0.089,0.014 -0.156,0.046 -0.181,-0.032 -0.34,-0.046 -0.466,-0.046 l -0.516,0 0,-0.524 0.055,-0.213 0.1,0.038 2.274,0 0.258,0.048 c 0,-0.031 0.055,-0.048 0.158,-0.048 l 0.871,0 0.202,0.132 C -0.032,-0.236 -0.038,-0.113 0,0"
         style="fill:#231f20;fill-opacity:1;fill-rule:nonzero;stroke:none"
         id="path10372" />
      <path
         transform="translate(-33,-13.4063)"
         d="M 0,0 0.063,0.418 C 0,0.512 -0.06,0.558 -0.124,0.558 l -1.385,0 c -0.071,0 -0.147,-0.095 -0.23,-0.279 L -1.746,0.283 C -1.75,0.234 -1.75,0.185 -1.755,0.139 c 0.005,0 0.009,0 0.016,0.002 0,-0.074 0.016,-0.137 0.06,-0.188 -0.087,-1.01 -0.198,-1.684 -0.364,-2.023 -0.213,-0.405 -0.615,-0.608 -1.206,-0.608 l -0.055,0 c -0.581,0 -0.945,0.313 -1.08,0.94 0,0.033 0.018,0.08 0.051,0.139 -0.033,0.054 -0.051,0.115 -0.051,0.189 l 0,0.698 -0.059,0.099 0.059,0 c 0,0.07 -0.014,0.129 -0.059,0.183 l 0.059,0.239 -0.059,0.094 c 0.045,0.055 0.059,0.117 0.059,0.191 l 0,0.047 c 0,0.213 -0.014,0.398 -0.059,0.56 0.045,0.176 0.059,0.299 0.059,0.38 l -0.059,0.562 0.059,0.283 -0.059,0.231 0.059,0.093 -0.059,0.187 c 0,0.094 0.021,0.209 0.059,0.329 l -0.059,0.329 c 0,0.188 0.021,0.514 0.059,0.985 -0.038,0.4 -0.085,0.618 -0.131,0.662 0.06,0 0.102,0.201 0.131,0.608 l -0.059,0.189 c 0.067,0.112 0.131,0.336 0.18,0.657 0.137,0.468 0.542,0.698 1.201,0.698 0.277,0 0.54,-0.187 0.783,-0.563 0.267,-0.179 0.469,-1.054 0.6,-2.624 0.121,0 0.259,-0.018 0.414,-0.047 l 0.243,0.047 c 0.353,-0.031 0.574,-0.047 0.659,-0.047 0.068,0 0.141,0.029 0.239,0.09 l -0.055,0.281 0.055,0.335 -0.055,0.325 0.055,0.09 -0.055,0.094 c 0.035,0.174 0.055,0.317 0.055,0.426 l 0,0.373 c 0,0.076 0.017,0.137 0.064,0.187 -0.047,0.056 -0.064,0.118 -0.064,0.19 l 0,0.048 c 0,0.278 -0.02,0.592 -0.055,0.942 l 0.055,0.23 -0.055,0.328 c 0.035,0.37 0.055,0.637 0.055,0.803 l -0.055,0.094 c 0.035,0 0.055,0.014 0.055,0.043 l 0,0.987 c 0,0.069 -0.117,0.12 -0.354,0.14 l -1.388,0 c -0.079,0 -0.135,-0.14 -0.177,-0.424 l -0.118,0 C -2.522,9.492 -2.84,9.619 -3.13,9.619 l -0.718,0 c -0.458,0 -0.877,-0.137 -1.259,-0.421 -1.046,-0.62 -1.568,-2.405 -1.568,-5.354 l 0,-0.044 -0.051,-0.236 c 0.039,0 0.051,-0.015 0.051,-0.044 C -6.711,3.303 -6.726,3.129 -6.726,3.005 l 0,-0.521 0.051,-0.234 c -0.036,0 -0.051,-0.029 -0.051,-0.093 0,-0.073 0.015,-0.132 0.051,-0.19 C -6.711,1.911 -6.726,1.85 -6.726,1.782 -6.726,1.68 -6.711,1.6 -6.675,1.547 l -0.051,-0.283 0,-0.374 c 0,-0.126 0.015,-0.302 0.051,-0.521 C -6.711,0.338 -6.726,0.215 -6.726,0 l 0,-0.047 0.051,-0.099 -0.051,0 c 0,-0.094 0.015,-0.2 0.051,-0.324 -0.036,-0.167 -0.051,-0.262 -0.051,-0.284 0,-0.119 0.039,-0.35 0.121,-0.703 l -0.07,-0.09 0.127,-1.225 c 0.347,-1.785 1.288,-2.678 2.821,-2.678 0.789,0 1.336,0.155 1.615,0.473 l 0.123,0 0,-0.284 C -1.95,-5.354 -1.831,-5.4 -1.628,-5.4 l 0.606,0 c 0.444,0 0.751,0.029 0.938,0.086 0.033,0.113 0.078,0.224 0.107,0.337 l -0.023,0 0.063,0.28 c 0,0.076 -0.026,0.205 -0.063,0.378 L 0.063,-3.852 0,-3.759 l 0.063,0 c 0,0.11 -0.026,0.184 -0.063,0.235 0,0.034 0.013,0.083 0.063,0.147 0,0.076 -0.026,0.195 -0.063,0.367 l 0.063,0.332 C 0.013,-2.402 0,-2.229 0,-2.163 L 0.063,-1.832 0,-1.599 c 0,0.076 0.013,0.203 0.063,0.376 0,0.027 -0.026,0.149 -0.063,0.379 L 0.063,-0.43 0,0 Z"
         style="fill:#231f20;fill-opacity:1;fill-rule:nonzero;stroke:none"
         id="path10376" />
      <path
         transform="translate(-21.9092,-3.7265997)"
         d="m 0,0 c -0.196,-0.029 -0.361,-0.045 -0.489,-0.045 l -1.324,0 c 0.015,-0.08 0.017,-0.16 0.017,-0.242 l 1.029,0 0.211,0.051 c 0.035,-0.037 0.095,-0.051 0.173,-0.051 l 0.696,0 c 0.068,0.051 0.103,0.099 0.103,0.147 0,0.063 -0.14,0.111 -0.416,0.14"
         style="fill:#231f20;fill-opacity:1;fill-rule:nonzero;stroke:none"
         id="path10380" />
      <path
         transform="translate(-24.3135,-6.6953997)"
         d="m 0,0 c 0.152,-0.029 0.275,-0.045 0.38,-0.045 l 0.042,0 c 0.291,0 0.731,0.016 1.33,0.045 0.115,-0.092 0.171,-0.381 0.171,-0.863 l 0,-0.095 c 0,-0.067 -0.026,-0.097 -0.089,-0.097 L 1.588,-1 C 1.539,-1.033 1.469,-1.055 1.373,-1.055 l 0,0.055 C 1.351,-1 1.341,-1.02 1.341,-1.055 0.876,-1.02 0.53,-1 0.297,-1 l -0.384,0 -0.407,-0.055 -0.081,0.144 0,0.866 0.284,0 c 0.163,0 0.258,0.016 0.291,0.045"
         style="fill:#231f20;fill-opacity:1;fill-rule:nonzero;stroke:none"
         id="path10384" />
      <path
         transform="translate(-22.4765,-7.9824997)"
         d="m 0,0 0.037,-0.098 0,-0.814 -0.365,0 c -0.066,0 -0.121,0.016 -0.168,0.047 l -0.088,-0.047 c -0.137,0 -0.3,0.016 -0.503,0.047 -0.408,-0.031 -0.842,-0.047 -1.286,-0.047 l -0.039,0.099 0,0.667 c 0.003,0.066 0.033,0.097 0.082,0.097 l 1.912,0 L 0,0 Z"
         style="fill:#231f20;fill-opacity:1;fill-rule:nonzero;stroke:none"
         id="path10388" />
      <path
         transform="translate(-24.6855,-15.4541)"
         d="M 0,0 2.333,0 2.376,-0.194 C 2.347,-0.251 2.333,-0.3 2.333,-0.334 l -1.41,0 c -0.276,0 -0.616,-0.016 -1.006,-0.052 -0.052,0.036 -0.097,0.052 -0.12,0.052 l 0,0.046 C -0.107,-0.096 -0.033,0 0,0"
         style="fill:#231f20;fill-opacity:1;fill-rule:nonzero;stroke:none"
         id="path10392" />
      <path
         transform="translate(-23.0605,-9.1835997)"
         d="M 0,0 C 0.029,0 0.041,-0.016 0.041,-0.052 L 0.256,0 0.541,0 c 0.055,-0.01 0.08,-0.043 0.08,-0.096 l 0,-0.765 -0.245,-0.047 c -0.113,0 -0.167,0.017 -0.167,0.047 l -0.416,-0.047 -1.583,0 0,0.812 0.284,0.044 1.133,0 c 0.102,0 0.226,0.019 0.373,0.052"
         style="fill:#231f20;fill-opacity:1;fill-rule:nonzero;stroke:none"
         id="path10396" />
      <path
         transform="translate(-22.4765,-10.3321)"
         d="m 0,0 0.037,-0.098 0,-0.668 c 0,-0.066 -0.024,-0.099 -0.08,-0.099 l -2.249,0 c -0.055,0 -0.081,0.033 -0.081,0.099 l 0,0.627 0.207,0.041 c 0.107,0 0.164,-0.012 0.164,-0.041 0.143,0.029 0.229,0.041 0.251,0.041 0.538,0 1.125,0.034 1.751,0.098"
         style="fill:#231f20;fill-opacity:1;fill-rule:nonzero;stroke:none"
         id="path10400" />
      <path
         transform="translate(-23.3486,-11.4805)"
         d="M 0,0 C 0.021,0 0.035,-0.014 0.035,-0.049 L 0.455,0 l 0.254,0 0.199,-0.049 0,-0.719 c 0,-0.061 -0.023,-0.093 -0.079,-0.093 -0.063,0 -0.12,0.017 -0.165,0.046 -0.018,0 -0.104,-0.016 -0.256,-0.046 -0.142,0 -0.264,0.017 -0.373,0.046 -0.304,-0.029 -0.584,-0.046 -0.83,-0.046 l -0.587,0 c -0.054,0 -0.094,0.16 -0.12,0.481 l 0.044,0.093 c -0.034,0.055 -0.044,0.116 -0.044,0.195 l 0.082,0.043 1.252,0 c 0.063,0 0.12,0.02 0.168,0.049"
         style="fill:#231f20;fill-opacity:1;fill-rule:nonzero;stroke:none"
         id="path10404" />
      <path
         transform="translate(-24.1846,-12.5821)"
         d="M 0,0 0.084,-0.046 C 0.133,-0.017 0.176,0 0.208,0 0.317,0 0.433,-0.017 0.541,-0.046 0.803,-0.017 1.055,0 1.29,0 l 0.415,0 c 0.064,0 0.089,-0.049 0.089,-0.144 0,-0.03 -0.023,-0.081 -0.049,-0.144 L 1.794,-0.576 C 1.762,-0.635 1.745,-0.686 1.745,-0.717 l -0.365,0 c -0.293,0 -0.515,0.015 -0.674,0.049 -0.599,-0.065 -1.027,-0.093 -1.291,-0.093 l -0.037,0.093 0,0.622 0.037,0 c 0.152,0 0.35,0.012 0.585,0.046"
         style="fill:#231f20;fill-opacity:1;fill-rule:nonzero;stroke:none"
         id="path10408" />
      <path
         transform="translate(-24.3135,-13.586)"
         d="M 0,0 C 0.33,-0.031 0.562,-0.049 0.713,-0.049 1.387,-0.02 1.777,0 1.874,0 l 0.049,-0.1 0,-0.574 -2.417,0 0,0.53 C -0.494,-0.08 -0.329,-0.031 0,0"
         style="fill:#231f20;fill-opacity:1;fill-rule:nonzero;stroke:none"
         id="path10412" />
      <path
         transform="translate(-23.8115,-14.5479)"
         d="M 0,0 C 0.028,0 0.069,-0.014 0.128,-0.044 L 0.21,0 C 0.265,0 0.295,-0.014 0.295,-0.044 L 0.792,0 1.335,0 c 0.037,0 0.086,-0.048 0.124,-0.139 l 0,-0.333 c 0,-0.064 -0.038,-0.093 -0.124,-0.093 -0.142,0 -0.208,0.013 -0.208,0.043 -0.278,-0.03 -0.485,-0.043 -0.629,-0.043 l -1.417,0 c -0.053,0 -0.077,0.029 -0.077,0.093 l 0,0.333 C -0.996,-0.048 -0.664,0 0,0"
         style="fill:#231f20;fill-opacity:1;fill-rule:nonzero;stroke:none"
         id="path10416" />
      <path
         transform="translate(-21.4931,-4.3476997)"
         d="M 0,0 0,-0.143 C 0,-0.209 -0.024,-0.24 -0.066,-0.24 l -0.42,0 c -0.146,0 -0.318,-0.013 -0.517,-0.049 -0.095,0.036 -0.19,0.049 -0.309,0.049 -0.05,-0.031 -0.087,-0.049 -0.113,-0.049 l 0,0.049 -0.068,-0.049 c -0.022,0 -0.028,0.018 -0.028,0.049 l -0.247,-0.049 -0.418,0 c -0.048,0 -0.07,0.036 -0.07,0.096 l 0,0.097 0.178,0.047 1.035,0 c 0.236,0 0.581,0.016 1.043,0.049"
         style="fill:#231f20;fill-opacity:1;fill-rule:nonzero;stroke:none"
         id="path10420" />
      <path
         transform="translate(-22.2627,-4.9687997)"
         d="M 0,0 C 0.05,-0.035 0.084,-0.05 0.11,-0.05 0.381,-0.016 0.576,0 0.703,0 l 0,-0.145 C 0.703,-0.213 0.677,-0.24 0.63,-0.24 l -0.486,0 C 0.093,-0.24 0.048,-0.227 0,-0.189 -0.226,-0.227 -0.342,-0.256 -0.342,-0.285 l -0.171,0.045 -0.238,0 c -0.056,0 -0.103,-0.016 -0.143,-0.045 -0.041,0.029 -0.086,0.045 -0.138,0.045 l -0.347,0 c -0.048,0 -0.071,0.027 -0.071,0.095 l 0,0.095 1.314,0 c 0.058,0 0.1,0.015 0.136,0.05"
         style="fill:#231f20;fill-opacity:1;fill-rule:nonzero;stroke:none"
         id="path10424" />
      <path
         transform="translate(-21.5596,-5.5429997)"
         d="m 0,0 0.066,-0.149 0,-0.093 -0.17,-0.046 -0.628,0 c -0.024,0 -0.038,0.016 -0.038,0.046 l -0.069,-0.046 -0.448,0 c -0.077,0 -0.134,-0.02 -0.167,-0.051 l -0.212,0.051 -0.487,0 0,0.097 0.034,0.091 c 0.613,0.034 1.102,0.049 1.459,0.049 l 0.417,0 L 0,0 Z"
         style="fill:#231f20;fill-opacity:1;fill-rule:nonzero;stroke:none"
         id="path10428" />
      <path
         transform="translate(-22.6758,-6.2109997)"
         d="M 0,0 C 0.026,0 0.036,-0.024 0.036,-0.055 L 0.211,0 1.08,0 c 0.044,-0.014 0.067,-0.046 0.067,-0.102 l 0,-0.095 -0.031,-0.096 c -0.62,0.037 -1.102,0.051 -1.454,0.051 l -0.347,0 -0.211,-0.051 c -0.044,0.037 -0.083,0.051 -0.107,0.051 l 0,0.099 c 0.008,0.057 0.031,0.088 0.069,0.088 l 0.554,0 c 0.094,0 0.224,0.016 0.38,0.055"
         style="fill:#231f20;fill-opacity:1;fill-rule:nonzero;stroke:none"
         id="path10432" />
      <path
         transform="translate(-21.1894,-18.754)"
         d="m 0,0 c -0.077,-0.065 -0.146,-0.094 -0.216,-0.094 l -2.136,0 c -0.034,0 -0.068,0.045 -0.112,0.14 0,0.071 0.06,0.12 0.184,0.145 0.216,-0.031 0.348,-0.048 0.4,-0.048 l 0.141,0.048 0.073,-0.048 c 0.138,0.033 0.233,0.048 0.292,0.048 0.111,0 0.178,-0.015 0.217,-0.048 0.209,0.033 0.375,0.048 0.508,0.048 l 0.327,0 0.359,-0.048"
         style="fill:#231f20;fill-opacity:1;fill-rule:nonzero;stroke:none"
         id="path10436" />
      <path
         transform="translate(-23.541,-16.0723)"
         d="m 0,0 2.209,0 c 0.05,-0.014 0.07,-0.047 0.07,-0.1 0,-0.06 -0.07,-0.111 -0.214,-0.143 -0.675,0.032 -1.226,0.05 -1.668,0.05 l -0.361,-0.05 c -0.047,0.032 -0.083,0.05 -0.107,0.05 l 0,0.093 C -0.068,-0.035 -0.044,0 0,0"
         style="fill:#231f20;fill-opacity:1;fill-rule:nonzero;stroke:none"
         id="path10440" />
      <path
         transform="translate(-21.293,-16.6954)"
         d="m 0,0 0.033,-0.093 0,-0.054 c 0,-0.064 -0.022,-0.095 -0.074,-0.095 l -0.105,0 c -0.484,0 -1.209,0.017 -2.173,0.053 l 0,0.042 c 0.003,0.062 0.029,0.097 0.071,0.097 l 0.176,0 c 0.468,0 1.158,0.015 2.072,0.05"
         style="fill:#231f20;fill-opacity:1;fill-rule:nonzero;stroke:none"
         id="path10444" />
      <path
         transform="translate(-21.8027,-17.2715)"
         d="M 0,0 0.072,-0.052 0.291,0 0.435,0 C 0.484,-0.011 0.51,-0.044 0.51,-0.098 l 0,-0.047 C 0.51,-0.211 0.484,-0.24 0.435,-0.24 l -2.026,0 -0.184,-0.046 -0.035,0.095 0,0.046 c 0.003,0.063 0.03,0.093 0.072,0.093 l 0.865,0 c 0.246,0 0.538,0.018 0.873,0.052"
         style="fill:#231f20;fill-opacity:1;fill-rule:nonzero;stroke:none"
         id="path10448" />
      <path
         transform="translate(-22.2431,-17.8965)"
         d="M 0,0 C 0.05,-0.031 0.088,-0.046 0.114,-0.046 0.273,-0.014 0.431,0 0.588,0 l 0.143,0 c 0.178,0 0.271,-0.046 0.29,-0.137 0,-0.051 -0.071,-0.096 -0.217,-0.15 -0.328,0.032 -0.573,0.049 -0.727,0.049 l -0.978,0 -0.434,-0.049 -0.034,0.096 0,0.054 c 0.003,0.062 0.029,0.091 0.071,0.091 l 0.728,0 c 0.137,0 0.332,0.015 0.57,0.046"
         style="fill:#231f20;fill-opacity:1;fill-rule:nonzero;stroke:none"
         id="path10452" />
      <path
         transform="translate(-23.7422,-17.3692)"
         d="m 0,0 0,1.197 c 0,0.053 -0.045,0.086 -0.125,0.1 l -0.974,0 c -0.127,0.045 -0.187,0.092 -0.187,0.137 l 0,0.193 c 0,0.133 -0.02,0.264 -0.056,0.381 l 0.056,0.291 c 0,0.303 -0.042,0.528 -0.127,0.676 0.047,0 0.085,0.075 0.127,0.234 -0.042,0.168 -0.056,0.318 -0.056,0.431 l 0,0.288 0.056,0.283 c -0.03,0.06 -0.075,0.303 -0.127,0.725 l 0.071,0.232 -0.071,0.289 0.071,0.193 -0.071,0.239 0.071,0.67 -0.071,0.574 c 0.047,0.056 0.071,0.122 0.071,0.191 l -0.071,0.195 0.071,0.094 c -0.038,0.089 -0.073,0.311 -0.123,0.671 0.078,0 0.123,0.112 0.123,0.331 0,0.373 -0.045,0.629 -0.123,0.772 l 0.123,0.616 c -0.045,0.173 -0.071,0.331 -0.071,0.481 l 0,0.242 c 0,0.051 0.044,0.087 0.127,0.094 l 0.315,0 c 0.565,0 0.846,0.082 0.846,0.237 l -0.057,0.192 c 0,0.144 0.021,0.241 0.057,0.289 -0.036,0.174 -0.057,0.316 -0.057,0.431 l 0,0.431 c 0,0.131 0.021,0.307 0.057,0.526 -0.036,0.053 -0.057,0.134 -0.057,0.238 0.011,0.07 0.036,0.123 0.074,0.153 0.011,0.095 0.011,0.218 -0.038,0.297 l -0.222,0.029 c -0.074,-0.03 -0.177,-0.045 -0.31,-0.045 l -0.548,0 c -0.374,0 -0.91,0.015 -1.595,0.045 l -0.117,-0.045 c -0.079,0.031 -0.153,0.045 -0.252,0.045 l -1.651,0 c 0,-0.073 -0.023,-0.137 -0.059,-0.196 l 0.059,-0.092 C -4.883,13.08 -4.9,12.863 -4.9,12.688 l 0,-0.961 -0.063,-0.569 c 0.108,-0.159 0.192,-0.242 0.247,-0.242 l 0.731,0 c 0.106,0 0.198,-0.128 0.308,-0.383 -0.041,-0.064 -0.059,-0.11 -0.059,-0.144 0,-0.082 0.018,-0.205 0.059,-0.386 L -3.736,9.906 c 0.043,-0.051 0.059,-0.119 0.059,-0.19 l 0,-1.771 0.068,-0.476 c -0.047,0 -0.068,-0.016 -0.068,-0.047 l 0.068,-0.289 0,-0.385 c 0,-0.184 -0.026,-0.434 -0.068,-0.764 0.042,-0.054 0.068,-0.132 0.068,-0.236 0,-0.074 -0.026,-0.141 -0.068,-0.194 l 0.068,-0.29 0,-0.044 c 0,-0.185 -0.026,-0.298 -0.068,-0.337 0.042,-0.174 0.068,-0.315 0.068,-0.43 l 0,-2.965 c 0,-0.129 -0.451,-0.209 -1.354,-0.244 l 0,-2.678 c 0.044,0 0.099,-0.016 0.184,-0.045 0.427,0.029 0.675,0.045 0.735,0.045 0.168,0 0.326,-0.016 0.489,-0.045 0.222,0.029 0.42,0.045 0.617,0.045 l 0.548,0 c 0.26,0 0.567,-0.016 0.925,-0.045 0.123,0.029 0.366,0.045 0.73,0.045 l 0.124,0 0.429,-0.045 c 0,0.038 0.078,0.067 0.245,0.094 l -0.124,1.002 C -0.023,-0.255 0,-0.131 0,0"
         style="fill:#231f20;fill-opacity:1;fill-rule:nonzero;stroke:none"
         id="path10456" />
      <path
         transform="translate(-8.2753998,-4.7499997)"
         d="M 0,0 0.246,0.045 C 0.246,0.02 0.268,0 0.313,0 L 0.385,0.045 C 0.421,0.02 0.469,0 0.523,0 0.574,0 0.621,0.02 0.656,0.045 0.698,0.02 0.744,0 0.794,0 l 0.485,0 0.074,0.045 0,-0.045 0.241,0.045 0.053,0 c 0.014,0.09 0,0.195 -0.039,0.29 l -0.079,0 C 1.428,0.335 1.333,0.302 1.249,0.238 0.934,0.302 0.741,0.335 0.656,0.335 0.656,0.297 0.65,0.282 0.625,0.282 l 0,0.053 L 0.451,0.282 C 0.297,0.282 0.185,0.297 0.104,0.335 -0.014,0.297 -0.129,0.282 -0.238,0.282 l -0.349,0 -0.069,-0.044 C -0.656,0.081 -0.587,0 -0.45,0 L 0,0 Z"
         style="fill:#231f20;fill-opacity:1;fill-rule:nonzero;stroke:none"
         id="path10460" />
      <path
         transform="translate(-6.5653998,-6.4726997)"
         d="m 0,0 c 0.002,0.006 0.007,0.016 0.007,0.02 -0.015,0.051 -0.042,0.095 -0.066,0.136 l -0.512,0 -0.167,-0.041 c 0,0.028 -0.012,0.041 -0.038,0.041 -0.023,0 -0.063,-0.013 -0.103,-0.041 -0.302,0.028 -0.542,0.041 -0.727,0.041 l -0.518,0 -0.173,-0.041 0,-0.193 0.173,-0.045 1.799,0 c 0.074,0 0.172,0.01 0.296,0.021 C -0.021,-0.068 -0.008,-0.035 0,0"
         style="fill:#231f20;fill-opacity:1;fill-rule:nonzero;stroke:none"
         id="path10464" />
      <path
         transform="translate(-6.7430998,-3.8779997)"
         d="m 0,0 c -0.053,0.011 -0.103,0.02 -0.147,0.026 -0.425,-0.028 -0.784,-0.047 -1.072,-0.047 -0.159,0 -0.458,0.019 -0.899,0.047 C -2.13,0.022 -2.141,0.02 -2.145,0.015 -2.13,-0.093 -2.117,-0.202 -2.111,-0.305 -1.99,-0.333 -1.9,-0.35 -1.842,-0.35 l 0.655,0 0.074,0.045 0,-0.045 0.175,0.045 c 0.047,0 0.097,-0.014 0.132,-0.045 0.045,0.031 0.086,0.045 0.142,0.045 l 0.733,0 C 0.098,-0.185 0.062,-0.079 0,0"
         style="fill:#231f20;fill-opacity:1;fill-rule:nonzero;stroke:none"
         id="path10468" />
      <path
         transform="translate(-15.8027,-8.3027997)"
         d="m 0,0 0.19,0 0.063,-0.602 0,-0.173 c 0,-0.115 -0.034,-0.171 -0.125,-0.171 l -0.067,0 c -0.133,0.038 -0.192,0.261 -0.192,0.686 l 0,0.091 C -0.121,-0.061 -0.078,0 0,0"
         style="fill:#231f20;fill-opacity:1;fill-rule:nonzero;stroke:none"
         id="path10472" />
      <path
         transform="translate(-15.5498,-10.4327)"
         d="M 0,0 0.259,0 C 0.338,0 0.383,-0.157 0.383,-0.474 0.31,-0.503 0.23,-0.517 0.124,-0.517 l -0.124,0 c -0.214,0 -0.343,0.063 -0.384,0.186 C -0.384,-0.108 -0.253,0 0,0"
         style="fill:#231f20;fill-opacity:1;fill-rule:nonzero;stroke:none"
         id="path10476" />
      <path
         transform="translate(-15.043,-11.2364)"
         d="M 0,0 C 0.089,-0.096 0.15,-0.205 0.198,-0.332 0.15,-0.458 0.045,-0.521 -0.124,-0.521 l -0.32,0.048 c -0.077,-0.032 -0.145,-0.048 -0.188,-0.048 -0.175,0.033 -0.259,0.125 -0.259,0.283 0,0.135 0.299,0.215 0.891,0.238"
         style="fill:#231f20;fill-opacity:1;fill-rule:nonzero;stroke:none"
         id="path10480" />
      <path
         transform="translate(-15.291,-11.9961)"
         d="M 0,0 C 0.045,0 0.07,-0.014 0.07,-0.045 L 0.383,0 0.446,0 C 0.575,0 0.641,-0.156 0.641,-0.473 0.471,-0.538 0.235,-0.568 -0.063,-0.568 l -0.521,0 -0.059,0.284 c 0,0.175 0.213,0.27 0.643,0.284"
         style="fill:#231f20;fill-opacity:1;fill-rule:nonzero;stroke:none"
         id="path10484" />
      <path
         transform="translate(-15.7422,-12.7979)"
         d="m 0,0 c 0.815,-0.023 1.211,-0.054 1.211,-0.097 l 0.072,-0.284 0,-0.05 c 0,-0.044 -0.065,-0.092 -0.19,-0.136 l -1.093,0 c -0.132,0.031 -0.191,0.125 -0.191,0.281 C -0.162,-0.097 -0.102,0 0,0"
         style="fill:#231f20;fill-opacity:1;fill-rule:nonzero;stroke:none"
         id="path10488" />
      <path
         transform="translate(-15.6123,-13.6016)"
         d="M 0,0 C 0.071,-0.033 0.155,-0.047 0.258,-0.047 0.333,-0.018 0.397,0 0.445,0 l 0,-0.047 L 0.569,0 0.963,0 C 1.219,0 1.35,-0.097 1.35,-0.286 l 0,-0.145 c 0,-0.081 -0.349,-0.144 -1.029,-0.186 -0.429,0.034 -0.642,0.077 -0.642,0.143 l 0,0.188 c 0,0.167 0.107,0.265 0.321,0.286"
         style="fill:#231f20;fill-opacity:1;fill-rule:nonzero;stroke:none"
         id="path10492" />
      <path
         transform="translate(-14.2646,-14.4092)"
         d="M 0,0 C 0.075,-0.093 0.164,-0.231 0.247,-0.426 0.211,-0.483 0.187,-0.532 0.187,-0.571 l -1.348,0 c -0.089,0 -0.176,-0.012 -0.25,-0.044 -0.174,0.048 -0.259,0.094 -0.259,0.139 l 0,0.337 c 0.011,0.06 0.054,0.097 0.131,0.097 l 1.217,0 L 0,0 Z"
         style="fill:#231f20;fill-opacity:1;fill-rule:nonzero;stroke:none"
         id="path10496" />
      <path
         transform="translate(-14.0176,-15.2149)"
         d="m 0,0 c 0.173,-0.26 0.263,-0.405 0.263,-0.424 0,-0.158 -0.154,-0.24 -0.446,-0.24 -0.441,0 -0.787,0.035 -1.02,0.094 -0.086,-0.029 -0.168,-0.043 -0.267,-0.043 l -0.255,0 c -0.06,0 -0.123,0.047 -0.191,0.136 l 0,0.288 c 0,0.046 0.059,0.093 0.191,0.145 l 0.193,0 c 0.096,0 0.185,-0.015 0.259,-0.052 0.076,0.037 0.16,0.052 0.248,0.052 0.05,0 0.116,-0.015 0.198,-0.052 C -0.793,-0.059 -0.514,-0.029 0,0"
         style="fill:#231f20;fill-opacity:1;fill-rule:nonzero;stroke:none"
         id="path10500" />
      <path
         transform="translate(-15.6748,-9.5800997)"
         d="m 0,0 c 0.249,0 0.384,-0.145 0.384,-0.425 l 0,-0.093 -0.135,-0.048 -0.316,0 c -0.085,0 -0.133,0.031 -0.133,0.095 l 0,0.326 c 0,0.047 0.072,0.098 0.2,0.145"
         style="fill:#231f20;fill-opacity:1;fill-rule:nonzero;stroke:none"
         id="path10504" />
      <path
         transform="translate(-14.5527,-16.0186)"
         d="m 0,0 0.292,0 c 0.401,0 0.593,-0.124 0.593,-0.381 l 0,-0.048 c 0,-0.021 -0.073,-0.068 -0.221,-0.137 -0.585,0.029 -0.885,0.075 -0.885,0.137 l 0,0.147 C -0.188,-0.089 -0.121,0 0,0"
         style="fill:#231f20;fill-opacity:1;fill-rule:nonzero;stroke:none"
         id="path10508" />
      <path
         transform="translate(-14.3232,-16.7735)"
         d="m 0,0 0.209,0 c 0.395,0 0.59,-0.1 0.59,-0.285 l 0,-0.1 -0.144,-0.189 -0.361,0.052 -0.679,0 -0.065,0.237 C -0.45,-0.1 -0.301,0 0,0"
         style="fill:#231f20;fill-opacity:1;fill-rule:nonzero;stroke:none"
         id="path10512" />
      <path
         transform="translate(-13.5244,-17.4864)"
         d="M 0,0 C 0.132,-0.1 0.209,-0.248 0.234,-0.429 0.069,-0.492 -0.077,-0.524 -0.217,-0.524 l -0.582,0 c -0.3,0 -0.45,0.095 -0.45,0.287 0.075,0.126 0.15,0.188 0.22,0.188 l 0.524,0 L 0,0 Z"
         style="fill:#231f20;fill-opacity:1;fill-rule:nonzero;stroke:none"
         id="path10516" />
      <path
         transform="translate(-14.4004,-18.2471)"
         d="M 0,0 0.14,-0.047 0.286,0 0.432,-0.047 0.876,0 1.029,0 C 1.321,-0.103 1.48,-0.263 1.48,-0.472 1.312,-0.538 1.161,-0.563 1.029,-0.563 l -0.218,0 c -0.179,0 -0.38,0.009 -0.671,0.046 -0.077,-0.035 -0.197,-0.046 -0.363,-0.046 l -0.15,0.14 0,0.235 C -0.347,-0.122 -0.223,-0.056 0,0"
         style="fill:#231f20;fill-opacity:1;fill-rule:nonzero;stroke:none"
         id="path10520" />
      <path
         transform="translate(-13.9365,-3.8037997)"
         d="M 0,0 0.182,0 0.426,-0.142 C 0.391,-0.52 0.3,-0.71 0.182,-0.71 L 0,-0.71 c -0.078,0.344 -0.117,0.566 -0.117,0.662 L 0,0 Z"
         style="fill:#231f20;fill-opacity:1;fill-rule:nonzero;stroke:none"
         id="path10524" />
      <path
         transform="translate(-13.6367,-4.8915997)"
         d="M 0,0 0.078,-0.233 C 0.021,-0.402 0,-0.497 0,-0.519 l -0.055,0 c -0.085,0 -0.124,0.03 -0.124,0.095 l 0,0.284 c 0,0.043 0.061,0.094 0.179,0.14"
         style="fill:#231f20;fill-opacity:1;fill-rule:nonzero;stroke:none"
         id="path10528" />
      <path
         transform="translate(-13.3867,-6.7431997)"
         d="m 0,0 0.661,0 c 0.06,0 0.122,-0.038 0.191,-0.136 l 0,-0.05 C 0.852,-0.217 0.828,-0.23 0.783,-0.23 L 0.852,-0.325 C 0.824,-0.483 0.699,-0.564 0.483,-0.564 l -0.242,0 c -0.1,0 -0.2,0.143 -0.299,0.428 C -0.014,-0.075 0,-0.026 0,0"
         style="fill:#231f20;fill-opacity:1;fill-rule:nonzero;stroke:none"
         id="path10532" />
      <path
         transform="translate(-12.8437,-7.5927997)"
         d="m 0,0 0.118,0 c 0.06,0 0.122,-0.049 0.191,-0.144 0,-0.16 -0.069,-0.252 -0.191,-0.281 l -0.298,0 c -0.076,0 -0.122,0.035 -0.122,0.096 l 0,0.283 L 0,0 Z"
         style="fill:#231f20;fill-opacity:1;fill-rule:nonzero;stroke:none"
         id="path10536" />
      <path
         transform="translate(-12.6035,-8.3007997)"
         d="m 0,0 0.068,-0.096 0,-0.33 c 0,-0.094 -0.087,-0.144 -0.249,-0.144 -0.158,0.032 -0.24,0.128 -0.24,0.281 l 0,0.154 C -0.421,-0.07 -0.286,-0.021 0,0"
         style="fill:#231f20;fill-opacity:1;fill-rule:nonzero;stroke:none"
         id="path10540" />
      <path
         transform="translate(-12.6582,-9.2490997)"
         d="m 0,0 c 0.092,0 0.145,-0.222 0.172,-0.661 l -0.117,0 c -0.122,0 -0.182,0.207 -0.182,0.616 L 0,0 Z"
         style="fill:#231f20;fill-opacity:1;fill-rule:nonzero;stroke:none"
         id="path10544" />
      <path
         transform="translate(-9.4970998,-6.8789997)"
         d="m 0,0 0,-0.05 c 0.025,0 0.039,0.015 0.039,0.05 l 0.202,-0.05 0.037,0 c 0.079,0 0.118,0.015 0.118,0.05 l 0.16,-0.05 C 0.976,-0.016 1.234,0 1.316,0 L 1.4,-0.05 C 1.441,-0.016 1.497,0 1.559,0 l 0.119,0 c 0.196,0 0.3,-0.046 0.316,-0.146 l 0,-0.473 0.039,-0.236 -0.117,-0.09 -1.279,0 C 0.55,-0.945 0.484,-0.965 0.435,-1 l -0.238,0.055 -0.717,0 -0.037,0.231 0,0.429 0.037,0.235 0.042,0 L 0,0 Z"
         style="fill:#231f20;fill-opacity:1;fill-rule:nonzero;stroke:none"
         id="path10548" />
      <path
         transform="translate(-9.4970998,-8.1542997)"
         d="M 0,0 C 0.025,0 0.07,-0.017 0.121,-0.051 L 0.396,0 c 0.279,-0.033 0.436,-0.051 0.48,-0.051 L 1.073,0 l 0,-0.051 c 0.029,0 0.044,0.018 0.044,0.051 l 0.283,-0.051 0.594,0 0.039,-0.23 0,-0.194 -0.039,-0.334 -2.433,0 c -0.081,0 -0.118,0.204 -0.118,0.618 0.025,0.093 0.045,0.14 0.079,0.14 L 0,0 Z"
         style="fill:#231f20;fill-opacity:1;fill-rule:nonzero;stroke:none"
         id="path10552" />
      <path
         transform="translate(-9.7763998,-9.2939997)"
         d="M 0,0 0.318,0 C 0.414,0 0.531,-0.019 0.676,-0.054 L 0.755,0 0.996,-0.054 c 0.091,0 0.159,0.018 0.203,0.054 L 1.396,-0.054 C 1.756,-0.019 2.009,0 2.152,0 2.22,-0.013 2.289,-0.094 2.354,-0.241 c 0,-0.346 -0.092,-0.516 -0.28,-0.516 -0.027,0 -0.042,0.014 -0.042,0.046 L 1.958,-0.757 c -0.041,0 -0.168,0.014 -0.403,0.046 L 1.353,-0.757 1.116,-0.711 c -0.031,0 -0.164,-0.015 -0.402,-0.046 L 0.522,-0.711 C 0.414,-0.743 0.312,-0.757 0.203,-0.757 L 0.117,-0.711 C 0.073,-0.743 0.021,-0.757 -0.045,-0.757 l -0.115,0 c -0.058,0 -0.093,0.121 -0.116,0.379 C -0.276,-0.126 -0.188,0 0,0"
         style="fill:#231f20;fill-opacity:1;fill-rule:nonzero;stroke:none"
         id="path10556" />
      <path
         transform="translate(-7.6229998,-10.3829)"
         d="M 0,0 C 0.085,-0.034 0.141,-0.096 0.159,-0.188 L 0.122,-0.284 c 0.024,-0.17 0.037,-0.315 0.037,-0.431 0,-0.062 -0.026,-0.093 -0.075,-0.093 l -0.042,0 c -0.185,0 -0.297,0.019 -0.321,0.046 -0.183,-0.027 -0.33,-0.046 -0.437,-0.046 l -0.723,0 c -0.057,0 -0.108,0.019 -0.157,0.046 -0.05,-0.027 -0.088,-0.046 -0.119,-0.046 -0.024,0 -0.071,0.019 -0.12,0.046 l -0.236,-0.046 c -0.223,0 -0.346,0.061 -0.36,0.186 0.025,0.38 0.09,0.572 0.199,0.572 0.138,-0.03 0.218,-0.046 0.243,-0.046 0.33,0.03 0.53,0.046 0.591,0.046 l 0.079,-0.046 0.082,0.046 c 0.052,0 0.08,-0.016 0.08,-0.046 L 0,0 Z"
         style="fill:#231f20;fill-opacity:1;fill-rule:nonzero;stroke:none"
         id="path10560" />
      <path
         transform="translate(-10.0537,-11.4747)"
         d="M 0,0 1.957,0 C 2.016,0 2.067,-0.017 2.115,-0.043 2.159,-0.017 2.214,0 2.27,0 l 0.245,0 c 0.048,-0.008 0.076,-0.037 0.076,-0.094 l 0,-0.619 c 0,-0.064 -0.028,-0.093 -0.076,-0.093 l -0.442,0 c -0.216,0 -0.464,-0.014 -0.756,-0.047 -0.052,0.033 -0.092,0.047 -0.124,0.047 -0.026,0 -0.037,-0.014 -0.037,-0.047 l -0.402,0.047 -0.637,0 c -0.046,0 -0.082,0.113 -0.117,0.338 0.024,0.058 0.037,0.103 0.037,0.139 L 0,0 Z"
         style="fill:#231f20;fill-opacity:1;fill-rule:nonzero;stroke:none"
         id="path10564" />
      <path
         transform="translate(-9.9745998,-12.6084)"
         d="M 0,0 0.4,0 C 0.426,0 0.437,-0.017 0.437,-0.05 L 0.517,0 0.756,0 c 0.027,0 0.043,-0.017 0.043,-0.05 0.028,0 0.036,0.014 0.036,0.05 l 0.198,-0.05 c 0.065,0 0.117,0.014 0.161,0.05 0.031,0 0.044,-0.017 0.044,-0.05 L 1.516,0 2.072,0 c 0.294,0 0.439,-0.05 0.439,-0.147 l 0,-0.423 c 0,-0.126 -0.581,-0.187 -1.755,-0.187 L 0.675,-0.802 c -0.024,0 -0.038,0.012 -0.038,0.045 l -0.397,-0.045 -0.16,0 c -0.103,0 -0.159,0.248 -0.159,0.752 L 0,0 Z"
         style="fill:#231f20;fill-opacity:1;fill-rule:nonzero;stroke:none"
         id="path10568" />
      <path
         transform="translate(-8.6210998,-13.5567)"
         d="m 0,0 0.079,-0.045 c 0.029,0 0.069,0.013 0.118,0.045 L 0.399,-0.045 C 0.648,-0.013 0.887,0 1.12,0 l 0.038,-0.092 0,-0.57 -0.396,0 c -0.079,0 -0.121,-0.018 -0.121,-0.048 l -0.202,0.048 -0.277,0 c -0.187,0 -0.344,-0.018 -0.483,-0.048 -0.743,0 -1.112,0.098 -1.112,0.286 l 0,0.231 c 0,0.05 0.056,0.101 0.16,0.148 0.025,0 0.039,-0.018 0.039,-0.047 l 0.397,0.047 0.282,0 c 0.061,0 0.114,-0.018 0.157,-0.047 L 0,0 Z"
         style="fill:#231f20;fill-opacity:1;fill-rule:nonzero;stroke:none"
         id="path10572" />
      <path
         transform="translate(-9.6591998,-14.5059)"
         d="m 0,0 c 0.377,-0.028 0.693,-0.042 0.954,-0.042 l 0.803,0 L 2.005,0 c 0.153,0 0.232,-0.109 0.232,-0.329 l -0.042,-0.19 -0.632,0 c -0.13,0 -0.269,-0.013 -0.402,-0.045 -0.102,0.032 -0.222,0.045 -0.362,0.045 l -0.037,0 c -0.081,0 -0.124,-0.013 -0.124,-0.045 l -0.198,0.045 -0.675,0 c -0.056,0.017 -0.115,0.095 -0.16,0.236 0.056,0.103 0.08,0.181 0.08,0.241 0.187,0 0.289,0.014 0.315,0.042"
         style="fill:#231f20;fill-opacity:1;fill-rule:nonzero;stroke:none"
         id="path10576" />
      <path
         transform="translate(-9.8554998,-15.3106)"
         d="M 0,0 C 0.026,0 0.034,-0.014 0.034,-0.044 L 0.242,0 C 0.518,0 0.813,-0.014 1.119,-0.044 L 1.396,0 C 1.59,-0.027 1.844,-0.044 2.152,-0.044 L 2.232,0 c 0.133,-0.037 0.202,-0.086 0.202,-0.139 l 0,-0.242 c 0,-0.058 -0.025,-0.094 -0.08,-0.094 l -0.795,0 c -0.031,0 -0.043,0.022 -0.043,0.051 L 1.432,-0.475 c -0.02,0 -0.036,0.022 -0.036,0.051 l -0.082,-0.051 -0.08,0 c -0.112,0 -0.252,0.022 -0.441,0.051 -0.025,0 -0.038,-0.015 -0.038,-0.051 l -0.276,0.051 -0.445,0 c -0.129,0 -0.209,0.064 -0.232,0.186 C -0.175,-0.078 -0.108,0 0,0"
         style="fill:#231f20;fill-opacity:1;fill-rule:nonzero;stroke:none"
         id="path10580" />
      <path
         transform="translate(-9.7343998,-16.0186)"
         d="M 0,0 C 0.186,-0.022 0.276,-0.052 0.276,-0.089 L 0.792,0 l 0,-0.05 c 0.028,0 0.045,0.016 0.045,0.05 l 0.194,-0.05 0.161,0 C 1.254,-0.05 1.306,-0.034 1.354,0 1.407,-0.034 1.448,-0.05 1.477,-0.05 1.525,-0.013 1.563,0 1.591,0 l 0,-0.05 0.082,0.05 0.56,0 c 0.055,-0.011 0.08,-0.042 0.08,-0.089 l 0,-0.246 -0.201,-0.046 -0.439,0 c -0.055,0 -0.114,0.017 -0.16,0.046 -0.054,-0.029 -0.1,-0.046 -0.159,-0.046 l -0.043,0 c -0.021,0 -0.036,0.017 -0.036,0.046 -0.053,-0.029 -0.089,-0.046 -0.118,-0.046 -0.136,0 -0.337,0.017 -0.598,0.046 -0.024,0 -0.101,-0.014 -0.245,-0.046 -0.4,0.026 -0.596,0.073 -0.596,0.142 l 0,0.095 c 0,0.063 0.094,0.11 0.282,0.144"
         style="fill:#231f20;fill-opacity:1;fill-rule:nonzero;stroke:none"
         id="path10584" />
      <path
         transform="translate(-7.5809998,-16.6817)"
         d="m 0,0 c 0.121,-0.057 0.187,-0.121 0.195,-0.191 l 0,-0.094 c 0,-0.066 -0.026,-0.092 -0.078,-0.092 l -0.039,0 c -0.39,0 -0.847,0.012 -1.357,0.051 l -0.28,-0.051 -0.16,0.051 c -0.232,-0.039 -0.429,-0.051 -0.594,-0.051 -0.036,0 -0.081,0.045 -0.123,0.146 0.023,0.048 0.042,0.11 0.042,0.186 l 0.281,0 c 0.126,0 0.26,-0.018 0.394,-0.047 0.106,0.029 0.212,0.047 0.321,0.047 l 0,-0.047 0.081,0.047 0.357,0 c 0.264,0 0.582,0.018 0.96,0.045"
         style="fill:#231f20;fill-opacity:1;fill-rule:nonzero;stroke:none"
         id="path10588" />
      <path
         transform="translate(-8.0966998,-17.9151)"
         d="m 0,0 c 0.065,-0.019 0.305,-0.05 0.711,-0.096 l 0,-0.139 -0.036,-0.097 c -0.398,0.03 -0.694,0.048 -0.876,0.048 l -0.765,0 -0.237,0.049 c -0.043,-0.034 -0.112,-0.049 -0.197,-0.049 -0.344,0 -0.52,0.049 -0.52,0.148 0.007,0.062 0.034,0.092 0.08,0.092 l 0.836,0 c 0.111,0 0.214,-0.016 0.32,-0.052 C -0.313,-0.05 -0.09,-0.019 0,0"
         style="fill:#231f20;fill-opacity:1;fill-rule:nonzero;stroke:none"
         id="path10592" />
      <path
         transform="translate(-9.9364998,-18.5293)"
         d="M 0,0 0.324,0 C 0.35,0 0.363,-0.014 0.363,-0.046 L 0.439,0 C 0.677,-0.029 0.82,-0.046 0.874,-0.046 0.909,-0.046 0.947,-0.029 0.994,0 1.201,-0.029 1.331,-0.06 1.396,-0.093 1.513,-0.029 1.649,0 1.793,0 L 2.151,-0.046 2.397,0 c 0.127,-0.041 0.197,-0.09 0.197,-0.141 l 0,-0.14 -0.476,-0.047 c -0.063,0 -0.111,0.014 -0.162,0.047 -0.048,-0.033 -0.1,-0.047 -0.163,-0.047 -0.105,0 -0.212,0.014 -0.315,0.047 C 1.302,-0.314 1.129,-0.328 0.957,-0.328 l -0.32,0 c -0.024,0 -0.038,0.014 -0.038,0.047 -0.025,0 -0.038,-0.018 -0.038,-0.047 l -0.198,0.047 -0.363,0 c -0.058,0 -0.08,0.025 -0.08,0.092 l 0,0.096 C -0.073,-0.029 -0.046,0 0,0"
         style="fill:#231f20;fill-opacity:1;fill-rule:nonzero;stroke:none"
         id="path10596" />
      <path
         transform="translate(-7.5009998,-17.3477)"
         d="m 0,0 c 0.048,-0.029 0.088,-0.045 0.115,-0.045 l 0,-0.143 c 0,-0.06 -0.027,-0.097 -0.078,-0.097 l -2.431,0 c -0.054,0 -0.079,0.037 -0.079,0.097 l 0,0.049 c 0.004,0.067 0.033,0.094 0.079,0.094 l 0.399,0 c 0.024,0 0.038,-0.014 0.038,-0.047 l 0.082,0.047 0.356,0 c 0.153,0 0.25,-0.014 0.284,-0.047 C -1.058,-0.059 -0.646,-0.029 0,0"
         style="fill:#231f20;fill-opacity:1;fill-rule:nonzero;stroke:none"
         id="path10600" />
      <path
         transform="translate(-8.7597998,-5.7460997)"
         d="M 0,0 0.034,0 C 0.115,0 0.169,-0.016 0.211,-0.047 L 0.416,0 0.798,0 C 0.819,0 0.83,-0.016 0.83,-0.047 L 0.905,0 1.007,0 c 0.023,0 0.03,-0.016 0.03,-0.047 L 1.111,0 l 1.106,0 0,-0.098 c 0,-0.101 -0.196,-0.164 -0.594,-0.187 l 0,0.05 -0.066,-0.05 -0.381,0 C 1.048,-0.285 0.885,-0.297 0.695,-0.331 0.648,-0.297 0.616,-0.285 0.589,-0.285 0.55,-0.313 0.503,-0.331 0.455,-0.331 L 0.387,-0.285 C 0.336,-0.313 0.301,-0.331 0.279,-0.331 c -0.302,0.026 -0.451,0.085 -0.451,0.194 l 0,0.09 L 0,0 Z"
         style="fill:#231f20;fill-opacity:1;fill-rule:nonzero;stroke:none"
         id="path10604" />
      <path
         transform="translate(-8.5136998,-5.0820997)"
         d="m 0,0 0.171,-0.043 0.244,0 c 0.078,0 0.131,0.013 0.17,0.043 l 0.207,-0.043 0.799,0 c 0.049,0 0.095,0.013 0.136,0.043 0.139,-0.041 0.206,-0.088 0.206,-0.139 0,-0.073 -0.255,-0.136 -0.761,-0.189 l -0.168,0.044 -1.282,0 c -0.044,0 -0.071,0.03 -0.071,0.095 l 0,0.05 c 0,0.055 0.116,0.102 0.349,0.139"
         style="fill:#231f20;fill-opacity:1;fill-rule:nonzero;stroke:none"
         id="path10608" />
      <path
         transform="translate(-9.0897998,-4.1318997)"
         d="M 0,0 C 0.014,-0.005 0.021,-0.005 0.027,-0.005 0.014,0.08 -0.004,0.171 -0.034,0.261 -0.27,0.304 -0.704,0.328 -1.329,0.328 l -0.972,0 -0.127,-0.048 0,0.048 c -0.038,0 -0.098,-0.016 -0.167,-0.048 L -2.724,0.328 -2.846,0.28 c -0.217,0.032 -0.394,0.048 -0.55,0.048 l -0.84,0 c -0.069,0 -0.112,-0.029 -0.118,-0.096 l 0,-2.509 c 0.028,-0.099 0.149,-0.142 0.36,-0.142 l 0.661,0 c 0,-0.03 0.025,-0.082 0.058,-0.139 0,-0.111 -0.014,-0.187 -0.058,-0.239 0.044,-0.395 0.082,-1.298 0.128,-2.7 l -0.07,-0.327 c 0.048,-0.165 0.07,-0.357 0.07,-0.573 l 0,-1.04 -0.128,0 c -0.288,1.067 -0.421,1.662 -0.421,1.799 -0.685,2.594 -1.135,4.485 -1.334,5.678 0,0.229 -0.223,0.337 -0.672,0.337 C -6.102,0.344 -6.377,0.328 -6.601,0.328 l -3.518,0 c -0.079,0 -0.14,-0.175 -0.175,-0.519 0.035,0 0.059,-0.017 0.059,-0.05 -0.041,-0.053 -0.059,-0.115 -0.059,-0.188 l 0,-0.47 c 0,-0.174 -0.02,-0.401 -0.067,-0.664 0.047,-0.063 0.067,-0.114 0.067,-0.149 -0.042,-0.115 -0.067,-0.246 -0.067,-0.376 l 0,-0.138 c 0,-0.064 0.126,-0.111 0.363,-0.138 l 0.12,0.042 c 0.489,0 0.731,-0.127 0.731,-0.382 -0.04,-0.215 -0.047,-0.385 -0.047,-0.517 l 0,-2.132 -0.077,-0.566 c 0.044,0 0.077,-0.018 0.077,-0.047 -0.056,0 -0.077,-0.017 -0.077,-0.049 l 0,-0.332 0.077,-0.091 c -0.056,0 -0.077,-0.017 -0.077,-0.055 l 0,-2.033 -0.055,-0.571 c 0.038,0 0.055,-0.08 0.055,-0.232 0,-0.073 -0.017,-0.137 -0.055,-0.188 0.038,-0.057 0.055,-0.127 0.055,-0.196 l 0,-0.474 c 0,-0.126 -0.017,-0.253 -0.055,-0.377 0.038,-0.12 0.055,-0.24 0.055,-0.374 l 0,-0.622 c 0,-0.214 -0.14,-0.339 -0.42,-0.377 0,0.038 -0.016,0.048 -0.064,0.048 l -0.539,0 c -0.129,-0.02 -0.19,-0.147 -0.19,-0.379 l 0,-0.147 0.061,-0.227 c -0.04,0 -0.061,-0.019 -0.061,-0.046 0,-0.077 0.021,-0.14 0.061,-0.188 -0.04,-0.277 -0.061,-0.498 -0.061,-0.668 l 0,-0.428 -0.059,-0.235 c 0.044,-0.346 0.141,-0.517 0.308,-0.517 l 0.357,0.045 2.726,0 0.609,0.047 c 0,-0.035 0.123,-0.047 0.371,-0.047 l 0.238,0 0.121,0.047 c -0.046,0.425 -0.061,0.739 -0.061,0.944 l 0,0.621 -0.06,0.562 c 0.043,0 0.06,0.02 0.06,0.052 -0.067,0.343 -0.157,0.516 -0.246,0.516 l -0.968,0 c 0,0.028 0.024,0.157 0.059,0.377 0,0.143 -0.021,0.354 -0.059,0.622 l 0.125,0.235 c -0.039,0.172 -0.066,0.311 -0.066,0.426 0,0.173 0.027,0.395 0.066,0.659 l -0.125,0.193 c 0.052,0 0.091,0.172 0.125,0.519 0,0.026 -0.021,0.124 -0.066,0.282 l 0.066,0.245 -0.125,1.413 c 0.057,0 0.101,0.111 0.125,0.334 -0.039,0.312 -0.066,0.552 -0.066,0.713 0,0.109 0.027,0.254 0.066,0.422 -0.039,0.051 -0.066,0.135 -0.066,0.238 0,0.151 0.027,0.309 0.066,0.477 -0.039,0.115 -0.066,0.256 -0.066,0.422 l 0,0.056 0.066,0.326 0.004,0 0,0.002 0,0.041 -0.004,0 -0.066,0.759 c 0,0.132 0.066,0.341 0.185,0.618 l 0.055,0 c 0.332,-0.863 0.752,-2.487 1.27,-4.879 l 0.736,-2.84 c 0.527,-2.087 0.827,-3.171 0.908,-3.267 0.112,-0.76 0.251,-1.135 0.43,-1.135 l 0.112,0.047 0.128,-0.047 0.359,0.047 0.485,0 0.309,-0.047 c 0,0.032 0.017,0.047 0.063,0.047 l 0.532,-0.047 c 0.267,0 0.403,0.045 0.422,0.141 0,0.051 -0.037,0.082 -0.115,0.095 l 0.065,0.471 c 0,0.088 -0.041,0.18 -0.125,0.284 0.04,0 0.06,0.017 0.06,0.05 l 0,0.52 0.065,0.337 c -0.041,0 -0.085,0.089 -0.125,0.276 0.04,0.057 0.06,0.121 0.06,0.19 l 0,0.285 -0.06,0.242 c 0.06,0 0.095,0.106 0.125,0.328 l -0.125,0.377 0.125,0.285 -0.125,0.521 c 0.084,0.186 0.125,0.341 0.125,0.471 0,0.139 -0.041,0.266 -0.125,0.381 0.04,0.214 0.06,0.388 0.06,0.519 l 0,0.143 c 0,0.129 -0.02,0.261 -0.06,0.384 0.04,0.118 0.06,0.245 0.06,0.376 l 0,0.476 c 0,0.111 -0.02,0.255 -0.06,0.423 0.04,0.055 0.06,0.115 0.06,0.184 l -0.06,0.241 c 0.043,0 0.09,0.063 0.125,0.186 l -0.183,0.338 c 0,0.049 0.04,0.176 0.118,0.377 0,0.291 -0.02,0.511 -0.06,0.661 l 0.06,0.429 c 0,0.162 -0.02,0.43 -0.06,0.802 0,0.053 0.022,0.244 0.06,0.568 l -0.06,0.571 c 0,0.189 0.187,0.283 0.546,0.283 l 0.482,0 0.182,0.1 c 0,0.066 -0.015,0.131 -0.063,0.179 0,0.028 0.023,0.122 0.063,0.286 0,0.228 -0.04,0.418 -0.115,0.569 0.038,0 0.075,0.049 0.115,0.146 l -0.115,0.9 C -0.07,-0.284 -0.034,-0.191 0,0"
         style="fill:#231f20;fill-opacity:1;fill-rule:nonzero;stroke:none"
         id="path10612" />
      <path
         transform="translate(5.0488002,-4.6503997)"
         d="M 0,0 -0.051,0 -0.324,-0.043 C -0.381,-0.013 -0.457,0 -0.561,0 -0.631,0 -0.688,-0.013 -0.744,-0.043 L -0.837,0 C -1.18,-0.025 -1.473,-0.043 -1.721,-0.043 l -0.972,0 c -0.054,0 -0.086,-0.034 -0.09,-0.092 l 0,-0.049 c 0,-0.062 0.029,-0.089 0.09,-0.089 l 0.136,0 c 0.38,0 0.847,0.015 1.398,0.043 l 0.224,-0.043 c 0,0.027 0.022,0.043 0.056,0.043 0.157,-0.028 0.301,-0.043 0.411,-0.043 0.4,0 0.604,0.046 0.604,0.138 C 0.086,-0.043 0.043,0 0,0"
         style="fill:#231f20;fill-opacity:1;fill-rule:nonzero;stroke:none"
         id="path10616" />
      <path
         transform="translate(5.2334002,-8.3027997)"
         d="m 0,0 c 0,0.049 -0.031,0.081 -0.094,0.094 l -1.624,0 -0.327,0.04 c 0,-0.031 -0.014,-0.04 -0.043,-0.04 l -0.414,0.04 c -0.047,0 -0.194,-0.031 -0.424,-0.085 l 0,-0.143 c 0,-0.061 0.032,-0.092 0.091,-0.092 l 1.491,0 0.463,0.047 c 0,-0.033 0.017,-0.047 0.042,-0.047 0.061,0.034 0.11,0.047 0.137,0.047 0.083,0 0.203,-0.013 0.371,-0.047 0.16,0.063 0.268,0.092 0.331,0.092 L 0,0 Z"
         style="fill:#231f20;fill-opacity:1;fill-rule:nonzero;stroke:none"
         id="path10620" />
      <path
         transform="translate(4.9522002,-5.6230997)"
         d="m 0,0 0.232,0.053 0,0.183 -1.295,0 -0.332,-0.048 c 0,0.03 -0.059,0.048 -0.18,0.048 L -1.901,0.188 c 0,0.03 -0.015,0.048 -0.045,0.048 C -1.998,0.203 -2.058,0.188 -2.129,0.188 l -0.425,0 c -0.052,0 -0.079,-0.03 -0.091,-0.092 l 0,-0.096 0.142,0 c 0.181,0 0.423,-0.012 0.739,-0.041 L -1.669,0 c 0.051,-0.026 0.116,-0.041 0.18,-0.041 l 0.38,0 0.089,0.041 0,-0.041 C -0.556,-0.012 -0.213,0 0,0"
         style="fill:#231f20;fill-opacity:1;fill-rule:nonzero;stroke:none"
         id="path10624" />
      <path
         transform="translate(2.2656002,-6.2714997)"
         d="m 0,0 c 0,-0.124 0.294,-0.186 0.879,-0.186 0.916,0 1.594,0.049 2.039,0.143 l 0,0.231 -0.134,0 C 2.663,0.188 2.526,0.174 2.361,0.145 L 2.266,0.188 C 2.216,0.158 2.152,0.145 2.085,0.145 l -1.527,0 -0.231,0.043 C 0.107,0.146 0,0.104 0,0.049 L 0,0 Z"
         style="fill:#231f20;fill-opacity:1;fill-rule:nonzero;stroke:none"
         id="path10628" />
      <path
         transform="translate(5.1397002,-9.6464997)"
         d="m 0,0 -2.276,0 -0.556,-0.048 0,-0.093 c 0,-0.068 0.153,-0.113 0.464,-0.136 l 0.092,0.043 0.097,-0.043 c 0.034,0 0.077,0.013 0.141,0.043 0,-0.03 0.015,-0.043 0.044,-0.043 l 0.595,0 0.239,0.043 c 0,-0.03 0.048,-0.043 0.135,-0.043 l 0.141,0 0.276,0.043 c 0.061,-0.03 0.136,-0.043 0.236,-0.043 l 0.324,0 c 0.093,0.047 0.142,0.091 0.142,0.136 l 0,0.052 C 0.094,-0.041 0.063,-0.012 0,0"
         style="fill:#231f20;fill-opacity:1;fill-rule:nonzero;stroke:none"
         id="path10632" />
      <path
         transform="translate(5.2334002,-8.9531997)"
         d="M 0,0 -2.088,0 -2.183,-0.043 C -2.183,-0.012 -2.197,0 -2.228,0 L -2.272,0 C -2.385,0 -2.523,-0.012 -2.695,-0.043 L -2.784,0 c -0.127,-0.048 -0.184,-0.09 -0.184,-0.137 0,-0.068 0.108,-0.119 0.327,-0.141 l 0.231,0.046 c 0,-0.032 0.014,-0.046 0.039,-0.046 l 0.283,0.046 1.249,0 C -0.281,-0.232 0,-0.186 0,-0.09 L 0,0 Z"
         style="fill:#231f20;fill-opacity:1;fill-rule:nonzero;stroke:none"
         id="path10636" />
      <path
         transform="translate(4.9522002,-6.8203997)"
         d="M 0,0 -0.094,0.041 C -0.338,0.041 -0.54,0.026 -0.696,0 -1.052,0.026 -1.395,0.041 -1.715,0.041 l -0.93,0 0,-0.273 0.185,0 c 0.218,0 0.345,-0.018 0.371,-0.047 0.213,0.029 0.384,0.047 0.514,0.047 l 1.347,0 c 0.339,0 0.509,0.046 0.509,0.138 l 0,0.041 C 0.281,0.002 0.25,0.033 0.188,0.041 0.119,0.041 0.052,0.026 0,0"
         style="fill:#231f20;fill-opacity:1;fill-rule:nonzero;stroke:none"
         id="path10640" />
      <path
         transform="translate(0.38090019,-14)"
         d="m 0,0 -0.056,0.234 -1.455,0 c -0.096,0 -0.158,-0.089 -0.182,-0.275 l 0,-0.236 c 0,-0.068 0.218,-0.112 0.637,-0.131 0.402,0.025 0.72,0.04 0.946,0.04 0.074,0 0.11,0.108 0.11,0.327 L 0,0 Z"
         style="fill:#231f20;fill-opacity:1;fill-rule:nonzero;stroke:none"
         id="path10644" />
      <path
         transform="translate(0.32520019,-14.834)"
         d="m 0,0 -0.054,0.236 -0.124,0 c -0.298,0 -0.568,0.013 -0.823,0.042 -0.342,-0.029 -0.55,-0.057 -0.637,-0.09 0,-0.032 0.026,-0.079 0.067,-0.137 l -0.067,-0.232 c 0.017,-0.084 0.117,-0.142 0.295,-0.182 l 0.123,0.043 c 0,-0.029 0.017,-0.043 0.054,-0.043 l 0.705,0 c 0.28,0 0.432,0.119 0.461,0.363"
         style="fill:#231f20;fill-opacity:1;fill-rule:nonzero;stroke:none"
         id="path10648" />
      <path
         transform="translate(-0.54689981,-15.2911)"
         d="m 0,0 -0.128,0 c -0.46,0 -0.688,-0.111 -0.688,-0.329 l 0,-0.091 c 0,-0.084 0.034,-0.178 0.117,-0.279 0.896,0.097 1.337,0.316 1.337,0.65 L 0.638,0 0.458,0 C 0.376,0 0.299,-0.016 0.225,-0.049 0.164,-0.016 0.082,0 0,0"
         style="fill:#231f20;fill-opacity:1;fill-rule:nonzero;stroke:none"
         id="path10652" />
      <path
         transform="translate(0.44630019,-12.9786)"
         d="m 0,0 c -0.648,0.028 -1.134,0.045 -1.464,0.045 l -0.112,0 c -0.069,0 -0.107,-0.029 -0.116,-0.095 l 0,-0.412 c 0,-0.081 0.193,-0.14 0.571,-0.183 0.081,0.026 0.143,0.044 0.183,0.044 0.046,0 0.095,-0.018 0.169,-0.044 0.06,0.026 0.196,0.044 0.414,0.044 0.273,0 0.404,0.154 0.404,0.458 C 0.018,-0.08 0,-0.031 0,0"
         style="fill:#231f20;fill-opacity:1;fill-rule:nonzero;stroke:none"
         id="path10656" />
      <path
         transform="translate(-0.22849981,-9.0898997)"
         d="M 0,0 0.277,-0.049 C 0.504,0.023 0.61,0.084 0.61,0.138 l 0,0.324 C 0.554,0.557 0.504,0.602 0.447,0.602 l -1.28,0 C -0.949,0.553 -1.008,0.506 -1.008,0.462 l 0,-0.324 C -0.977,0.047 -0.859,0 -0.67,0 L 0,0 Z"
         style="fill:#231f20;fill-opacity:1;fill-rule:nonzero;stroke:none"
         id="path10660" />
      <path
         transform="translate(3.7871002,-12.9834)"
         d="M 0,0 C 0,0.033 -0.03,0.049 -0.081,0.049 -0.114,0.049 -0.15,0.033 -0.21,0 c 0,0.033 -0.015,0.049 -0.038,0.049 l -0.042,0 L -0.376,0 c 0,0.033 -0.01,0.049 -0.04,0.049 L -0.7,0.049 -0.903,0 c 0,0.033 -0.013,0.049 -0.038,0.049 C -1.003,0.049 -1.059,0.033 -1.107,0 L -1.186,0.049 -1.477,0 l 0,-0.138 c 0,-0.061 0.03,-0.091 0.086,-0.091 l 0.691,0 0.208,-0.045 c 0,0.033 0.013,0.045 0.034,0.045 0,-0.029 0.014,-0.045 0.042,-0.045 l 0.085,0 c 0.114,0 0.26,0.016 0.452,0.045 0.045,-0.029 0.102,-0.045 0.159,-0.045 l 0.083,0.045 c 0,-0.029 0.015,-0.045 0.04,-0.045 l 0.04,0 c 0.061,0 0.114,0.016 0.165,0.045 l 0.084,-0.045 c 0.022,0 0.132,0.016 0.328,0.045 0.043,0 0.069,-0.005 0.09,-0.024 0.101,0.003 0.236,0.013 0.274,0.107 0.013,0.028 0.013,0.069 0.013,0.102 L 1.384,0.049 1.217,0.049 1.137,0 c 0,0.033 -0.01,0.049 -0.037,0.049 l -0.82,0 L 0,0 Z"
         style="fill:#231f20;fill-opacity:1;fill-rule:nonzero;stroke:none"
         id="path10664" />
      <path
         transform="translate(5.1465002,-13.8223)"
         d="m 0,0 c -0.009,0.008 -0.009,0.011 -0.012,0.012 l 0,-0.004 -0.082,0.049 -0.425,0 c -0.147,0 -0.382,-0.012 -0.71,-0.049 0,0.037 -0.032,0.049 -0.091,0.049 0,-0.028 -0.013,-0.049 -0.041,-0.049 0,0.037 -0.018,0.049 -0.041,0.049 l -1.225,0 c -0.049,0 -0.077,-0.028 -0.086,-0.09 l 0,-0.094 0.214,-0.051 1.179,0 0.212,0.051 c 0,-0.031 0.04,-0.051 0.128,-0.051 l 0.925,0 c 0.017,0 0.024,-0.01 0.041,-0.029 0.002,0.006 0.011,0.012 0.016,0.019 0.019,0.013 0.025,0.095 0.019,0.118 l 0,0.043 C 0.016,-0.018 0.007,-0.011 0,0"
         style="fill:#231f20;fill-opacity:1;fill-rule:nonzero;stroke:none"
         id="path10668" />
      <path
         transform="translate(5.1436002,-14.5391)"
         d="m 0,0 -0.304,0.076 c 0,-0.025 -0.019,-0.041 -0.04,-0.041 L -0.429,0.076 C -0.668,0.051 -0.867,0.035 -1.018,0.035 l -0.717,0 c -0.205,0 -0.514,0.016 -0.933,0.041 0,-0.033 -0.015,-0.077 -0.042,-0.135 l 0.085,-0.143 c 0.131,0 0.21,0.017 0.255,0.051 0.238,-0.034 0.432,-0.051 0.584,-0.051 l 0.169,0 c 0.299,0 0.605,0.017 0.931,0.051 0.137,-0.034 0.318,-0.051 0.548,-0.051 0.047,0 0.103,0.035 0.162,0.091 l 0,0.048 C 0.005,-0.046 0.003,-0.021 0,0"
         style="fill:#231f20;fill-opacity:1;fill-rule:nonzero;stroke:none"
         id="path10672" />
      <path
         transform="translate(5.2422002,-15.2618)"
         d="m 0,0 c 0,0.017 -0.006,0.033 -0.009,0.053 -0.007,0.023 -0.012,0.035 -0.02,0.054 -0.087,0 -0.209,0.017 -0.373,0.051 l -0.89,0 c -0.317,0 -0.811,-0.017 -1.475,-0.051 l -0.042,-0.094 0,-0.042 c 0,-0.061 0.033,-0.093 0.086,-0.093 l 1.647,0 0.421,0.043 c 0,-0.028 0.086,-0.043 0.253,-0.043 l 0.084,0 c 0.074,0 0.156,0.032 0.25,0.093 l 0.044,0 C -0.021,-0.024 -0.009,-0.02 0,-0.02 L 0,0 Z"
         style="fill:#231f20;fill-opacity:1;fill-rule:nonzero;stroke:none"
         id="path10676" />
      <path
         transform="translate(3.5733002,-15.754)"
         d="M 0,0 C 0,-0.033 -0.017,-0.05 -0.048,-0.05 -0.048,-0.017 -0.054,0 -0.08,0 L -0.293,0 -0.379,-0.05 C -0.379,-0.017 -0.393,0 -0.42,0 L -0.505,-0.05 C -0.505,-0.017 -0.52,0 -0.543,0 l -0.339,0 -0.216,-0.05 0,-0.186 c 0.091,0 0.348,-0.033 0.763,-0.09 l 0.081,0.051 0.292,-0.051 c 0.324,0 0.802,0.017 1.441,0.051 l 0.122,0.088 0.031,0 c 0.014,0.03 0.013,0.064 0,0.097 C 1.584,-0.086 1.519,-0.06 1.433,0 0.896,-0.033 0.532,-0.05 0.344,-0.05 0.27,-0.05 0.157,-0.033 0,0"
         style="fill:#231f20;fill-opacity:1;fill-rule:nonzero;stroke:none"
         id="path10680" />
      <path
         transform="translate(5.2520002,-16.6504)"
         d="m 0,0 0,0.046 c -0.007,0.024 -0.01,0.052 -0.017,0.079 -0.008,0.021 -0.017,0.051 -0.03,0.07 l -2.557,0 -0.214,-0.041 0,-0.134 c 0,-0.063 0.033,-0.094 0.086,-0.094 l 0.837,0 c 0.124,0 0.28,0.016 0.471,0.043 0.052,-0.027 0.092,-0.043 0.122,-0.043 0.271,0.027 0.52,0.043 0.765,0.043 l 0.503,0 c 0.015,0.013 0.018,0.024 0.034,0.029 L 0,0 Z"
         style="fill:#231f20;fill-opacity:1;fill-rule:nonzero;stroke:none"
         id="path10684" />
      <path
         transform="translate(4.9238002,-17.0948)"
         d="m 0,0 -0.209,-0.051 -1.771,0 -0.51,-0.045 0,-0.184 c 0.037,0 0.074,-0.016 0.133,-0.049 0.044,0.033 0.099,0.049 0.162,0.049 l 0.425,-0.049 c 0,0.033 0.008,0.049 0.041,0.049 l 0,-0.049 c 0.279,0.033 0.493,0.049 0.631,0.049 l 1.379,0 c 0.016,0.056 0.008,0.13 -0.007,0.198 L 0.168,0 0.082,0 0,-0.051 0,0 Z"
         style="fill:#231f20;fill-opacity:1;fill-rule:nonzero;stroke:none"
         id="path10688" />
      <path
         transform="translate(3.6572002,-17.837)"
         d="M 0,0 C -0.025,0 -0.067,-0.018 -0.131,-0.05 -0.131,-0.018 -0.138,0 -0.165,0 L -0.504,0 -0.757,-0.05 C -0.8,-0.018 -0.876,0 -0.967,0 l -0.087,0 -0.209,-0.05 0,-0.092 c 0.018,-0.091 0.105,-0.139 0.253,-0.139 l 0.043,0 0.086,0.046 0,-0.046 c 0.164,0 0.384,0.014 0.669,0.046 0.28,-0.032 0.494,-0.046 0.633,-0.046 l 0.088,0.046 c 0,-0.032 0.012,-0.046 0.039,-0.046 l 0.548,0 0.3,-0.046 c 0,0.029 0.039,0.06 0.109,0.09 0.012,0.008 0.019,0.019 0.033,0.019 -0.004,0 10e-4,0.057 -0.004,0.076 l -0.056,0 C 1.478,-0.05 1.435,0 1.35,0 1.252,-0.031 1.192,-0.05 1.183,-0.05 0.613,-0.018 0.223,0 0,0"
         style="fill:#231f20;fill-opacity:1;fill-rule:nonzero;stroke:none"
         id="path10692" />
      <path
         transform="translate(5.1817002,-18.5938)"
         d="m 0,0 -0.09,0.063 -0.377,0 c -0.162,0 -0.262,-0.015 -0.297,-0.049 -0.15,0.034 -0.28,0.049 -0.38,0.049 l -1.309,0 -0.253,-0.03 c 0.011,-0.072 0.015,-0.142 0.015,-0.217 l 0,-0.007 c 0.008,-0.007 0.017,-0.016 0.029,-0.026 l 0.294,0 c 0.119,0 0.271,-0.017 0.467,-0.047 l 0.076,0.047 0.255,-0.047 1.354,0 c 0.143,0 0.208,0.047 0.208,0.144 l 0.025,0 C 0.014,-0.082 0.003,-0.041 0,0"
         style="fill:#231f20;fill-opacity:1;fill-rule:nonzero;stroke:none"
         id="path10696" />
      <path
         transform="translate(5.0488002,-3.9072997)"
         d="m 0,0 -2.783,0 0,-0.065 c 0.011,-0.075 0.018,-0.153 0.029,-0.231 l 0.197,-0.025 1.488,0 c 0.8,0 1.205,0.045 1.205,0.134 l 0,0.047 C 0.086,-0.048 0.043,0 0,0"
         style="fill:#231f20;fill-opacity:1;fill-rule:nonzero;stroke:none"
         id="path10700" />
      <path
         transform="translate(-0.00389981,-7.3076997)"
         d="m 0,0 c -0.027,-0.005 -0.055,-0.005 -0.081,0.017 -0.084,0.088 -0.201,0.14 -0.304,0.197 -0.01,-0.006 -0.018,-0.008 -0.037,-0.008 -0.019,0 -0.034,0.008 -0.042,0.019 -0.116,-0.014 -0.21,0.015 -0.301,0.088 -0.006,0.003 -0.006,0.008 -0.011,0.01 -0.056,0.006 -0.08,0.071 -0.061,0.12 C -0.931,0.456 -1.024,0.475 -1.116,0.487 -1.191,0.384 -1.232,0.294 -1.232,0.208 l 0,-0.275 c 0.058,-0.096 0.116,-0.146 0.174,-0.146 l 0.722,0 0.389,0.052 0,0.094 L 0,0 Z"
         style="fill:#231f20;fill-opacity:1;fill-rule:nonzero;stroke:none"
         id="path10704" />
      <path
         transform="translate(0.10650019,-7.7480997)"
         d="m 0,0 -1.063,0 -0.28,-0.051 0,-0.224 c 0,-0.157 0.059,-0.246 0.176,-0.28 l 0.225,0 0.105,0.049 c 0,-0.032 0.018,-0.049 0.054,-0.049 l 0.833,0 0.148,0.079 c -0.003,0.083 -0.007,0.171 -0.04,0.253 -0.007,0.034 0,0.064 0.02,0.08 C 0.14,-0.078 0.082,-0.029 0,0"
         style="fill:#231f20;fill-opacity:1;fill-rule:nonzero;stroke:none"
         id="path10708" />
      <path
         transform="translate(3.3809002,-10.336)"
         d="m 0,0 0,0.135 -0.049,0.092 c -0.031,0 -0.078,-0.014 -0.132,-0.043 -0.213,0.029 -0.38,0.043 -0.509,0.043 l -0.281,0 -0.328,-0.043 c 0,0.029 -0.018,0.043 -0.044,0.043 -0.03,0 -0.076,-0.014 -0.142,-0.043 -0.022,0 -0.11,0.012 -0.279,0.043 -0.029,0 -0.078,-0.014 -0.13,-0.043 -0.061,0.029 -0.126,0.043 -0.19,0.043 l -0.229,0 c -0.076,0 -0.139,-0.014 -0.186,-0.043 -0.058,0.029 -0.117,0.043 -0.188,0.043 l -0.135,0 C -2.825,0.213 -2.836,0.199 -2.852,0.19 c -0.063,-0.032 -0.05,-0.221 -0.05,-0.279 0.006,-0.115 0.016,-0.206 0.16,-0.186 0.023,0.004 0.05,0 0.065,-0.014 0.14,-0.027 0.264,-0.041 0.364,-0.041 l 1.851,0 0.232,0.055 0,-0.011 c 0.007,0 0.016,0.003 0.025,0.003 0.008,0 0.014,-0.003 0.024,-0.003 0.039,0.015 0.074,0.034 0.112,0.075 0.031,0.028 0.05,0.06 0.075,0.088 C 0.006,-0.079 0,-0.04 0,0"
         style="fill:#231f20;fill-opacity:1;fill-rule:nonzero;stroke:none"
         id="path10712" />
      <path
         transform="translate(2.2666002,-11.3584)"
         d="m 0,0 0.424,0 0.46,0.04 C 0.892,0.04 0.9,0.048 0.917,0.048 0.992,0.044 1.076,0.085 1.139,0.144 1.134,0.269 1.132,0.391 1.132,0.513 1.113,0.523 1.096,0.538 1.076,0.542 1.067,0.546 1.065,0.552 1.062,0.552 0.982,0.513 0.9,0.495 0.812,0.504 c -0.002,0 -0.01,0.001 -0.02,0.003 l -0.005,0 -2.545,0 C -1.82,0.497 -1.889,0.423 -1.946,0.276 L -1.85,0.04 C -1.076,0.015 -0.454,0 0,0"
         style="fill:#231f20;fill-opacity:1;fill-rule:nonzero;stroke:none"
         id="path10716" />
      <path
         transform="translate(0.96970019,-12.0079)"
         d="M 0,0 C 0.205,0 0.516,-0.016 0.926,-0.044 0.926,-0.016 0.94,0 0.973,0 c 0,-0.029 0.019,-0.044 0.048,-0.044 l 0.838,0 L 2.181,0 c 0.007,0.008 0.016,0.012 0.033,0.015 0.103,0.022 0.183,0.122 0.218,0.223 0.004,0.033 0.009,0.067 0.02,0.107 -0.02,0.106 -0.137,0.106 -0.246,0.083 -0.009,-0.006 -0.019,0 -0.025,0 l 0,-0.098 -0.097,0 0,0.135 -0.787,0 -0.229,0.046 C 1.068,0.479 1.053,0.465 1.021,0.465 L 0.926,0.511 C 0.895,0.511 0.844,0.493 0.789,0.465 L 0.462,0.511 C 0.429,0.511 0.387,0.493 0.327,0.465 0.158,0.493 0.021,0.511 -0.089,0.511 l -0.186,0 c -0.231,0 -0.351,-0.048 -0.374,-0.142 l 0,-0.229 C -0.598,0.047 -0.553,0 -0.511,0 L 0,0 Z"
         style="fill:#231f20;fill-opacity:1;fill-rule:nonzero;stroke:none"
         id="path10720" />
      <path
         transform="translate(3.3506002,-12.4053)"
         d="m 0,0 c -0.063,0.034 -0.111,0.065 -0.181,0.101 -0.003,0 -0.012,0.005 -0.019,0.006 l 0,-0.036 C -0.402,0.14 -0.538,0.168 -0.618,0.168 l -0.18,0 -0.233,-0.048 c 0,0.033 -0.138,0.062 -0.424,0.091 C -1.507,0.182 -1.564,0.168 -1.641,0.168 l -1.18,0 C -2.827,0.166 -2.827,0.159 -2.83,0.155 -2.877,0.12 -2.9,0.063 -2.926,-0.001 c 0.006,-0.073 0.006,-0.143 -0.006,-0.21 0.006,-0.032 0.013,-0.061 0.032,-0.087 0.004,-0.012 0.009,-0.023 0.015,-0.033 0.024,-0.007 0.058,-0.014 0.088,-0.014 l 2.044,0 c 0.161,0 0.419,0.018 0.783,0.051 l 0,0.277 0.006,0.008 C 0.025,-0.009 0.012,-0.007 0,0"
         style="fill:#231f20;fill-opacity:1;fill-rule:nonzero;stroke:none"
         id="path10724" />
      <path
         transform="translate(-1.1200998,-9.9238997)"
         d="m 0,0 0.892,0 c 0.447,0 0.674,0.078 0.674,0.229 l -0.064,0.275 0,0.148 -0.275,0.039 -0.398,0 -0.107,-0.039 0,0.039 C 0.206,0.661 -0.073,0.631 -0.116,0.6 -0.116,0.447 -0.075,0.248 0,0"
         style="fill:#231f20;fill-opacity:1;fill-rule:nonzero;stroke:none"
         id="path10728" />
      <path
         transform="translate(5.2334002,-7.6093997)"
         d="m 0,0 c 0,0.051 -0.031,0.084 -0.094,0.089 l -0.372,0 -0.281,0.053 C -0.806,0.108 -0.853,0.089 -0.881,0.089 -1.098,0.089 -1.224,0.108 -1.254,0.142 -1.471,0.108 -1.637,0.089 -1.771,0.089 l -1.064,0 C -2.888,0.089 -2.914,0.057 -2.926,0 l 0,-0.047 c 0,-0.045 0.066,-0.096 0.185,-0.142 0.032,0 0.082,0.017 0.142,0.049 l 0.228,-0.049 c 0.909,0 1.696,0.034 2.371,0.093 L 0,0 Z"
         style="fill:#231f20;fill-opacity:1;fill-rule:nonzero;stroke:none"
         id="path10732" />
      <path
         transform="translate(2.3985002,-18.5752)"
         d="m 0,0 -0.067,-0.005 c 0,0.102 -0.019,0.18 -0.052,0.234 0.033,0 0.052,0.012 0.052,0.043 l 0,0.045 c 0,0.209 -0.019,0.399 -0.052,0.559 l 0.052,0.233 c -0.037,0.646 -0.079,1.097 -0.116,1.341 0.037,0.038 0.064,0.149 0.064,0.321 l 0,0.093 -0.064,0.28 c 0.037,0.051 0.064,0.127 0.064,0.234 l 0,0.363 c 0,0.113 -0.027,0.257 -0.064,0.426 0.037,0.072 0.079,0.227 0.116,0.459 l -0.116,0.971 -0.293,0 -0.358,0.045 C -1.502,5.621 -1.835,5.546 -1.835,5.411 l 0.053,-0.226 c 0,-0.29 -0.019,-0.559 -0.053,-0.791 C -1.801,4.226 -1.782,4.103 -1.782,4.021 -1.862,3.694 -1.976,3.401 -2.134,3.144 -2.546,2.68 -3.104,2.45 -3.795,2.45 c -0.038,0 -0.101,0.014 -0.178,0.047 0,0.04 0.02,0.19 0.064,0.458 0,0.148 -0.023,0.307 -0.064,0.466 L -3.909,3.7 c 0,0.094 -0.023,0.202 -0.064,0.321 l 0.064,0.326 c 0,0.129 -0.023,0.299 -0.064,0.507 l 0.064,0.281 c 0,0.024 -0.023,0.145 -0.064,0.368 0.041,0.056 0.064,0.101 0.064,0.139 -0.044,0 -0.064,0.013 -0.064,0.045 0.064,0.091 0.121,0.138 0.178,0.138 l 0.534,0 0.296,0.051 c 0,-0.033 0.014,-0.051 0.06,-0.051 0.345,0.024 0.56,0.057 0.656,0.094 0.006,0.014 0.006,0.029 0.018,0.043 -0.018,0.088 -0.012,0.176 0.018,0.263 -0.003,0.016 -0.003,0.046 -0.003,0.067 l -0.044,0.141 0,0.416 c 0,0.17 0.023,0.384 0.065,0.644 -0.042,0.055 -0.065,0.119 -0.065,0.188 l 0.112,0.373 c -0.003,0.091 -0.025,0.191 -0.025,0.291 -0.05,0.113 -0.181,0.168 -0.373,0.168 L -2.672,8.466 -3.498,8.513 -3.795,8.466 c 0,0.031 -0.038,0.047 -0.114,0.047 l 0.055,0.459 0,0.14 c 0,0.088 -0.042,0.181 -0.119,0.278 0.077,0.189 0.119,0.314 0.119,0.373 -0.033,0 -0.055,0.017 -0.055,0.043 l 0.055,0 -0.055,0.328 c 0,0.091 0.022,0.199 0.055,0.322 -0.033,0.12 -0.055,0.246 -0.055,0.371 0,0.147 0.022,0.305 0.055,0.461 l -0.055,0.283 c 0,0.186 0.114,0.276 0.355,0.276 0.081,0 0.315,-0.066 0.705,-0.186 0.015,0.006 0.033,0.002 0.048,-0.006 0.094,-0.047 0.192,-0.09 0.276,-0.144 0.028,0.011 0.065,0.002 0.092,-0.035 0.288,-0.356 0.449,-0.643 0.473,-0.872 0.025,-0.089 0.033,-0.18 0.033,-0.273 l 0.024,-0.01 c 0,-0.186 0.021,-0.695 0.068,-1.533 0.058,-0.092 0.113,-0.137 0.171,-0.137 0.136,0 0.235,0.014 0.301,0.045 l 0.35,-0.045 0.293,0 0.127,0.045 c 0,-0.031 0.014,-0.045 0.049,-0.045 l 0.122,0 0.182,0.092 c 0,0.076 -0.024,0.198 -0.065,0.369 L -0.24,9.39 c -0.045,0.163 -0.065,0.318 -0.065,0.47 l 0,0.131 0.065,0.281 c -0.045,0.059 -0.065,0.102 -0.065,0.134 0,0.148 0.02,0.309 0.065,0.464 l -0.065,0.418 c 0,0.092 0.02,0.2 0.065,0.322 -0.045,0.164 -0.065,0.317 -0.065,0.469 l 0,0.369 0.065,0.229 c -0.03,0 -0.076,0.186 -0.119,0.556 0.043,0.055 0.054,0.118 0.054,0.185 l 0,0.507 0.05,0.334 c 0,0.006 -0.009,0.013 -0.009,0.018 0.009,0.128 -0.013,0.251 -0.052,0.368 l -0.043,0.023 -2.375,0 -0.29,0.052 c 0,-0.034 -0.024,-0.052 -0.07,-0.052 -0.037,0 -0.092,0.018 -0.167,0.052 l -0.411,-0.052 -0.301,0.052 c 0,-0.034 -0.019,-0.052 -0.051,-0.052 -0.076,0.031 -0.153,0.052 -0.243,0.052 l -0.181,0 c -1.108,0 -1.972,0.029 -2.605,0.088 -0.156,-0.086 -0.236,-0.198 -0.236,-0.327 l 0,-0.279 0.058,-0.092 c -0.039,0 -0.058,-0.014 -0.058,-0.043 l 0,-2.084 c 0.06,-0.093 0.117,-0.136 0.179,-0.136 l 0.233,0 0.301,0.043 c 0,-0.028 0.082,-0.043 0.239,-0.043 0.113,0 0.173,-0.325 0.173,-0.977 l 0,-1.291 c 0,-0.111 -0.017,-0.254 -0.057,-0.424 0.04,-0.049 0.057,-0.11 0.057,-0.183 0,-0.199 -0.017,-0.463 -0.057,-0.783 L -6.164,7.772 C -6.202,7.364 -6.221,6.934 -6.221,6.475 l 0,-0.094 c 0,-0.124 0.019,-0.252 0.057,-0.368 C -6.202,5.896 -6.221,5.767 -6.221,5.642 l 0,-2.036 -0.06,-0.228 c 0.043,0 0.06,-0.014 0.06,-0.052 -0.04,-0.05 -0.06,-0.115 -0.06,-0.182 l 0,-0.559 C -6.316,2.497 -6.441,2.45 -6.638,2.45 l -0.769,0 c -0.063,0 -0.104,-0.029 -0.117,-0.092 l 0,-0.507 c 0,-0.114 0.019,-0.254 0.054,-0.421 -0.035,-0.054 -0.054,-0.117 -0.054,-0.185 0,-0.033 0.019,-0.078 0.054,-0.136 l -0.054,0 L -7.47,0.83 -7.524,0.738 c 0,-0.07 0.019,-0.133 0.054,-0.187 C -7.505,0.388 -7.524,0.247 -7.524,0.134 l 0,-0.182 c 0.157,-0.139 0.235,-0.219 0.235,-0.233 l 0.412,0.046 1.365,0 c 0.258,0 0.51,0.018 0.781,0.047 0.133,-0.029 0.351,-0.047 0.642,-0.047 l 1.184,0 0.296,-0.046 c 0,0.028 0.026,0.046 0.063,0.046 1.511,-0.032 2.339,-0.046 2.479,-0.046 0.034,0 0.061,0.022 0.086,0.068 l 0,0.011 c 0,0.069 0,0.138 -0.019,0.202"
         style="fill:#231f20;fill-opacity:1;fill-rule:nonzero;stroke:none"
         id="path10736" />
      <path
         transform="translate(-34.251,0.54590035)"
         d="m 0,0 -0.371,1.54 c -0.094,0.373 -0.153,0.756 -0.208,1.129 l -0.117,0 L -1.276,0 0,0 Z m -2.098,-3.166 -3.363,0 3.036,8.744 3.514,0 3.12,-8.744 -3.363,0 -0.29,1.09 -2.4,0 -0.254,-1.09 z"
         style="fill:#231f20;fill-opacity:1;fill-rule:nonzero;stroke:none"
         id="path10740" />
      <path
         transform="translate(-29.9619,6.1240003)"
         d="m 0,0 3.178,0 0,-5.938 2.667,0 0,-2.806 L 0,-8.744 0,0 Z"
         style="fill:#231f20;fill-opacity:1;fill-rule:nonzero;stroke:none"
         id="path10744" />
      <path
         transform="translate(-23.8515,6.1240003)"
         d="m 0,0 5.855,0 0,-2.504 -2.656,0 0,-0.906 2.33,0 0,-2.272 -2.33,0 0,-3.062 L 0,-8.744 0,0 Z"
         style="fill:#231f20;fill-opacity:1;fill-rule:nonzero;stroke:none"
         id="path10748" />
      <path
         transform="translate(-14.5762,2.2480003)"
         d="m 0,0 0.222,0 c 0.522,0 1.042,0.082 1.042,0.732 0,0.674 -0.476,0.753 -1.021,0.753 L 0,1.485 0,0 Z m -3.106,3.876 3.837,0 c 1.971,0 3.643,-0.835 3.643,-3.038 0,-1.323 -0.511,-1.879 -1.695,-2.274 l 0,-0.069 C 2.842,-1.633 3.04,-1.771 3.212,-2.027 l 1.902,-2.841 -3.664,0 -1.391,2.805 -0.059,0 0,-2.805 -3.106,0 0,8.744 z"
         style="fill:#231f20;fill-opacity:1;fill-rule:nonzero;stroke:none"
         id="path10752" />
      <path
         transform="translate(-9.2997998,6.1240003)"
         d="m 0,0 5.875,0 0,-2.391 -2.675,0 0,-0.835 2.447,0 0,-2.271 -2.447,0 0,-0.857 2.769,0 0,-2.39 L 0,-8.744 0,0 Z"
         style="fill:#231f20;fill-opacity:1;fill-rule:nonzero;stroke:none"
         id="path10756" />
      <path
         d="m 0,0 0.194,0 c 1.056,0 1.869,0.488 1.869,1.637 0,1.228 -0.707,1.748 -1.869,1.748 L 0,3.385 0,0 Z m -3.18,6.124 3.235,0 c 2.934,0 5.184,-1.287 5.184,-4.499 0,-2.598 -1.83,-4.245 -4.394,-4.245 l -4.025,0 0,8.744 z"
         style="fill:#231f20;fill-opacity:1;fill-rule:nonzero;stroke:none"
         id="path10760" />
    </g>
  </g>
</svg>
