<?xml version="1.0" encoding="UTF-8" standalone="no"?>
<!-- Created with Inkscape (http://www.inkscape.org/) -->
<svg id="svg10413" xmlns:rdf="http://www.w3.org/1999/02/22-rdf-syntax-ns#" xmlns="http://www.w3.org/2000/svg" height="110" width="200.09" version="1.1" xmlns:cc="http://creativecommons.org/ns#" xmlns:dc="http://purl.org/dc/elements/1.1/" viewBox="0 0 200.09448 110">
 <metadata id="metadata10418">
  <rdf:RDF>
   <cc:Work rdf:about="">
    <dc:format>image/svg+xml</dc:format>
    <dc:type rdf:resource="http://purl.org/dc/dcmitype/StillImage"/>
    <dc:title/>
   </cc:Work>
  </rdf:RDF>
 </metadata>
 <g id="layer1" transform="translate(0 -942.36)" fill="#231f20">
  <path id="path6992" d="m31.28 986.09-1.5059-6.2342c-0.36756-1.5095-0.61379-3.0582-0.84217-4.5499h-0.47461l-2.3481 10.784h5.1708zm-8.5181 12.797h-13.653l12.336-35.353h14.26l12.665 35.353h-13.653l-1.1705-4.4106h-9.7457l-1.0384 4.4106z"/>
  <path id="path6996" d="m48.69 963.53h12.907v24.009h10.823v11.348h-23.731v-35.357z"/>
  <path id="path7000" d="m73.51 963.53h23.766v10.117h-10.781v3.6684h9.4637v9.189h-9.4637v12.383h-12.986v-35.357z"/>
  <path id="path7004" d="m111.16 979.19h0.89927c2.1197 0 4.2358-0.32831 4.2358-2.9512 0-2.7264-1.9377-3.044-4.1466-3.044h-0.98848v5.9951zm-12.608-15.662h15.577c8.0006 0 14.784 3.3794 14.784 12.29 0 5.3456-2.0769 7.5938-6.8801 9.1854v0.28177c0.66018 0.51387 1.4631 1.0813 2.1661 2.1126l7.7152 11.491h-14.874l-5.6454-11.344h-0.23552v11.344h-12.608v-35.361z"/>
  <path id="path7008" d="m132.58 963.53h23.863v9.6636h-10.87v3.3758h9.9312v9.1818h-9.9312v3.4758h11.248v9.66h-24.241v-35.357z"/>
  <path id="path7012" d="m170.33 988.28h0.79578c4.2787 0 7.576-1.9663 7.576-6.6054 0-4.9745-2.8655-7.0871-7.576-7.0871h-0.79578v13.692zm-12.9-24.758h13.136c11.905 0 21.036 5.2065 21.036 18.196 0 10.502-7.4368 17.165-17.836 17.165h-16.337v-35.361z"/>
  <path id="path7016" d="m34.151 1019h0.8279c3.0404 0 6.2057-0.5709 6.8195-4.3002 0.60665-3.9539-2.2375-4.3356-5.4741-4.3356h-0.80649l-1.3667 8.6358zm-2.0555 12.914h-2.6835l3.8112-24.038h3.4865c4.5784 0 8.643 1.2062 7.7758 6.6269-0.5781 3.7041-3.3294 6.3164-7.0728 6.6304l5.9523 10.78h-3.2902l-5.6383-10.556h-0.66731l-1.6736 10.556z"/>
  <path id="path7020" d="m53.771 1007.9h12.526l-0.39254 2.4871h-9.8277l-1.1205 7.1408h9.5351l-0.41038 2.4766h-9.5422l-1.4988 9.4458h9.8277l-0.37826 2.4837h-12.515l3.7969-24.034z"/>
  <path id="path7024" d="m84.278 1012.6c-0.703-1.6558-1.6951-2.6087-3.7434-2.6087-2.1447 0-4.2216 1.5273-4.5713 3.7255-0.35685 2.0769 1.6594 3.037 3.1653 3.7684l1.4774 0.696c2.9405 1.3809 5.3385 2.9334 4.739 6.7623-0.67802 4.2074-4.5856 7.4334-8.775 7.4334-3.8754 0-6.3698-2.4946-6.5233-6.2235l2.7157-0.7317c-0.03226 2.4517 1.5345 4.4606 4.1288 4.4606 2.5836 0 5.2743-1.9769 5.7275-4.6853 0.44607-2.8086-1.6308-3.7612-3.7077-4.7855l-1.3453-0.6282c-2.6264-1.2775-4.8354-2.7155-4.2929-6.1627 0.61379-3.7327 4.1252-6.1202 7.7152-6.1202 2.6907 0 4.7676 1.3703 5.6597 3.7364l-2.3695 1.3632z"/>
  <path id="path7028" d="m95.172 1007.9h12.526l-0.3854 2.4871h-9.8349l-1.1205 7.1408h9.5423l-0.41752 2.4766h-9.5423l-1.4988 9.4458h9.8277l-0.3854 2.4837h-12.515l3.804-24.034z"/>
  <path id="path7032" d="m116.41 1019h0.8279c3.0404 0 6.1985-0.5709 6.8194-4.3002 0.60665-3.9539-2.2446-4.3356-5.4741-4.3356h-0.79222l-1.381 8.6358zm-2.0483 12.914h-2.6907l3.8112-24.038h3.4865c4.5784 0 8.643 1.2062 7.7722 6.6269-0.57453 3.7041-3.3259 6.3164-7.0764 6.6304l5.9594 10.78h-3.2973l-5.624-10.556h-0.67445l-1.6665 10.556z"/>
  <path id="path7036" d="m140.03 1026.2 9.7992-18.328h2.9084l-13.821 25.472-5.7667-25.472h2.9155l3.9646 18.328z"/>
  <path id="path7040" d="m163.41 1013-5.6668 9.628h8.1612l-2.4944-9.628zm-7.1371 12.104-4.0003 6.8302h-2.9405l15.131-25.194 6.8516 25.194h-2.9762l-1.7628-6.8302h-10.302z"/>
 </g>
</svg>
